<?xml version="1.0" encoding="UTF-8"?><svg id="_レイヤー_2" xmlns="http://www.w3.org/2000/svg" viewBox="0 0 258.38 214.8"><defs><style>.cls-1{fill:#fff;}</style></defs><g id="_レイヤー_1-2"><g><g><path class="cls-1" d="M.27,42.37H8.71V3.95H.27V1.91H25.83V3.95h-8.43V42.37h8.43v2.04H.27v-2.04Z"/><path class="cls-1" d="M27.16,42.5c4.82-.06,5.9-.77,8.75-5.67L56.45,0l22.13,42.5h5.9v1.91h-22.38v-1.91h7.16l-6.47-13.06h-20.54l-4.37,7.9-.06,.25q-.7,1.59-.7,2.1c0,1.02,.63,1.98,1.71,2.49,.63,.25,1.01,.32,2.79,.32h3.55v1.91H27.16v-1.91Zm34.55-15.1l-8.81-17.33-9.45,17.33h18.26Z"/><path class="cls-1" d="M85.74,42.37c7.23,.13,8.24-.7,8.5-6.95V4.08h-7.99V1.97l16.74-.06,17.75,33.01L137.73,1.91h16.23V3.95h-7.99V42.37h7.92v2.04h-24.47v-2.04h8.05V6.95l-19.4,38.3h-1.27L96.46,7.65v27.78c0,2.29,.38,4.4,1.01,5.22,.82,1.15,2.79,1.78,5.71,1.78,.44,0,.95,0,1.78-.06v2.04h-19.21v-2.04Z"/><path class="cls-1" d="M155.3,42.5c4.82-.06,5.9-.77,8.75-5.67L184.59,0l22.13,42.5h5.9v1.91h-22.38v-1.91h7.16l-6.47-13.06h-20.54l-4.37,7.9-.06,.25q-.7,1.59-.7,2.1c0,1.02,.63,1.98,1.71,2.49,.63,.25,1.01,.32,2.79,.32h3.55v1.91h-18.01v-1.91Zm34.55-15.1l-8.81-17.33-9.45,17.33h18.26Z"/><path class="cls-1" d="M215.34,28.48h1.71c.44,2.68,1.01,4.52,1.97,6.25,3.17,5.67,10.71,9.37,19.21,9.37s13.82-3.5,13.82-8.67c0-2.1-.95-4.21-2.6-5.48-.7-.57-1.39-.96-2.03-1.21-2.98-.89-7.42-1.53-13-1.72-7.17-.32-12.74-1.98-15.91-4.84-2.54-2.29-3.8-4.97-3.8-8.03,0-3.76,2.03-7.52,5.45-10.07,2.85-2.17,7.61-3.38,13.12-3.38,5.9,0,10.27,1.15,16.29,4.33l3.8-3.12h1.52v15.93h-1.65c-1.58-9.88-8.69-15.17-20.16-15.17-8.05,0-13.19,2.93-13.19,7.58,0,1.4,.57,2.8,1.46,3.82,2.79,3.06,6.28,4.14,15.09,4.52,7.86,.38,13.44,2.04,16.55,4.91,2.66,2.55,4.06,5.61,4.06,8.92,0,3.82-1.9,7.39-5.26,9.88-3.04,2.23-8.31,3.5-14.26,3.5s-9.38-.83-16.61-4.14l-3.87,2.93-1.71-.19v-15.93Z"/><path class="cls-1" d="M57.22,99.08c0,7.78-1.43,14.11-4.03,17.37-2.86,3.62-7.52,5.61-13.15,5.61-4.65,0-8.41-1.09-14.85-4.25-5.64-2.71-8.05-3.53-11.09-3.53-3.4,0-6.71,1.36-8.5,3.62-.8,.91-1.34,1.81-2.24,3.8H1.21c-.09-1-.18-1.81-.18-2.17,0-4.34,1.88-8.69,5.37-12.76,3.31-3.8,11.72-8.96,22.37-13.75,5.91-2.71,9.04-4.7,11.18-7.33,2.42-2.89,3.58-5.97,3.58-9.23,0-8.5-7.61-14.66-18.07-14.66-5.46,0-10.92,1.45-14.5,3.71-1.43,1-2.59,2.17-4.12,4.07,.89-.09,1.61-.09,2.24-.09,3.94,0,6.98,3.08,6.98,7.06s-3.04,7.06-7.07,7.06-6.98-3.08-6.98-7.51c0-9.77,11.1-16.83,26.4-16.83,8.68,0,16.91,2.35,21.3,6.15,3.49,2.99,5.28,6.88,5.28,11.49,0,5.43-2.24,9.5-7.16,12.67-2.59,1.72-6.44,3.17-14.14,5.52-20.58,6.24-28.81,12.21-29.98,22.07,3.13-5.07,9.84-8.32,17-8.32,4.29,0,4.92,.09,20.04,3.53,2.06,.45,4.21,.72,5.73,.72,2.24,0,4.29-.81,5.46-2.17,1.79-1.99,3.04-6.42,3.04-10.68v-1.18h2.24Z"/><path class="cls-1" d="M116.19,68.32c5.19,5.61,8.32,14.29,8.32,23.16,0,10.13-4.03,19.72-10.56,25.15-4.92,4.07-11.1,6.15-18.61,6.15-17,0-28.63-12.67-28.63-31.3s12.88-31.39,29.8-31.39c7.96,0,14.5,2.71,19.68,8.23Zm-33.46,1c-2.95,4.25-4.83,11.85-4.83,19.9,0,11.22,2.77,21.26,7.25,26.42,3.04,3.53,6.44,5.07,11.01,5.07,4.83,0,8.5-1.81,11.27-5.7,3.94-5.16,6-13.48,6-23.52s-2.06-18.55-5.91-23.34c-3.13-3.8-7.43-5.97-11.99-5.97-5.01,0-9.48,2.44-12.79,7.15Z"/><path class="cls-1" d="M191.98,99.08c0,7.78-1.43,14.11-4.03,17.37-2.86,3.62-7.52,5.61-13.15,5.61-4.65,0-8.41-1.09-14.85-4.25-5.64-2.71-8.05-3.53-11.09-3.53-3.4,0-6.71,1.36-8.5,3.62-.8,.91-1.34,1.81-2.24,3.8h-2.15c-.09-1-.18-1.81-.18-2.17,0-4.34,1.88-8.69,5.37-12.76,3.31-3.8,11.72-8.96,22.37-13.75,5.91-2.71,9.04-4.7,11.18-7.33,2.42-2.89,3.58-5.97,3.58-9.23,0-8.5-7.61-14.66-18.07-14.66-5.46,0-10.92,1.45-14.5,3.71-1.43,1-2.59,2.17-4.12,4.07,.89-.09,1.61-.09,2.24-.09,3.94,0,6.98,3.08,6.98,7.06s-3.04,7.06-7.07,7.06-6.98-3.08-6.98-7.51c0-9.77,11.1-16.83,26.4-16.83,8.68,0,16.91,2.35,21.3,6.15,3.49,2.99,5.28,6.88,5.28,11.49,0,5.43-2.24,9.5-7.16,12.67-2.59,1.72-6.44,3.17-14.14,5.52-20.58,6.24-28.81,12.21-29.98,22.07,3.13-5.07,9.84-8.32,17-8.32,4.29,0,4.92,.09,20.04,3.53,2.06,.45,4.21,.72,5.73,.72,2.24,0,4.29-.81,5.46-2.17,1.79-1.99,3.04-6.42,3.04-10.68v-1.18h2.24Z"/><path class="cls-1" d="M244.15,60.82v41.34h12.62v2.71h-12.62v14.02h12.44v2.8h-36.33l-.09-2.8h13.24v-14.02h-36.6v-2.44l43.75-41.62h3.58Zm-10.74,41.34v-31.48l-32.66,31.48h32.66Z"/></g><g><g><path class="cls-1" d="M12.08,200.92l.34,4.19h-.34c-.35-1.04-.79-1.83-1.34-2.36-.79-.76-1.8-1.15-3.05-1.15-1.69,0-2.98,.67-3.86,2.01-.74,1.13-1.11,2.47-1.11,4.04,0,1.27,.25,2.42,.73,3.47,.49,1.04,1.13,1.81,1.92,2.3s1.61,.73,2.44,.73c.49,0,.96-.06,1.42-.19,.46-.12,.9-.31,1.32-.55v-3.84c0-.67-.05-1.1-.15-1.31-.1-.21-.26-.36-.47-.47s-.59-.16-1.12-.16v-.37h5.14v.37h-.24c-.51,0-.86,.17-1.05,.51-.13,.24-.2,.72-.2,1.43v4.06c-.75,.4-1.49,.7-2.22,.89-.73,.19-1.54,.28-2.44,.28-2.57,0-4.51-.82-5.85-2.47-1-1.23-1.5-2.66-1.5-4.27,0-1.17,.28-2.29,.84-3.36,.67-1.27,1.58-2.25,2.74-2.94,.97-.57,2.12-.85,3.45-.85,.48,0,.92,.04,1.32,.12,.39,.08,.95,.25,1.68,.52,.37,.14,.61,.21,.73,.21s.23-.06,.32-.17c.09-.11,.14-.34,.16-.67h.36Z"/><path class="cls-1" d="M17.5,205.26v2.02c.75-1.35,1.52-2.02,2.31-2.02,.36,0,.66,.11,.89,.33,.24,.22,.35,.47,.35,.76,0,.25-.08,.47-.25,.65-.17,.18-.37,.26-.61,.26s-.49-.11-.77-.34c-.28-.23-.5-.34-.63-.34-.12,0-.25,.06-.38,.2-.29,.27-.6,.71-.91,1.32v4.3c0,.5,.06,.87,.19,1.13,.08,.18,.23,.32,.45,.44,.22,.12,.53,.18,.93,.18v.35h-4.59v-.35c.46,0,.8-.07,1.02-.22,.16-.1,.28-.27,.34-.5,.03-.11,.05-.43,.05-.95v-3.48c0-1.04-.02-1.67-.06-1.87-.04-.2-.12-.34-.23-.44s-.26-.14-.43-.14c-.2,0-.43,.05-.69,.15l-.1-.35,2.71-1.1h.41Z"/><path class="cls-1" d="M26.64,213.2c-.92,.71-1.5,1.12-1.73,1.23-.35,.16-.73,.25-1.13,.25-.62,0-1.13-.21-1.53-.64-.4-.42-.6-.98-.6-1.67,0-.44,.1-.82,.29-1.14,.27-.44,.73-.86,1.4-1.25,.66-.39,1.76-.87,3.3-1.43v-.35c0-.89-.14-1.51-.43-1.84s-.7-.5-1.24-.5c-.41,0-.74,.11-.98,.33-.25,.22-.37,.48-.37,.76l.02,.57c0,.3-.08,.53-.23,.7s-.35,.25-.6,.25-.44-.08-.59-.25c-.15-.17-.23-.4-.23-.7,0-.56,.29-1.08,.86-1.55,.58-.47,1.38-.71,2.42-.71,.8,0,1.45,.13,1.96,.4,.38,.2,.67,.52,.85,.95,.12,.28,.18,.86,.18,1.72v3.04c0,.86,.02,1.38,.05,1.57,.03,.19,.09,.32,.16,.39s.16,.1,.26,.1c.1,0,.2-.02,.27-.07,.14-.08,.4-.32,.79-.71v.55c-.73,.98-1.43,1.47-2.1,1.47-.32,0-.57-.11-.76-.33-.19-.22-.29-.6-.29-1.14Zm0-.64v-3.42c-.99,.39-1.62,.67-1.91,.83-.52,.29-.88,.59-1.11,.9-.22,.31-.33,.66-.33,1.03,0,.47,.14,.86,.42,1.17,.28,.31,.6,.46,.97,.46,.5,0,1.15-.33,1.96-.98Z"/><path class="cls-1" d="M36.8,213.49c-.44,.46-.87,.79-1.28,.98s-.87,.3-1.35,.3c-.98,0-1.83-.41-2.57-1.23s-1.1-1.87-1.1-3.16,.4-2.46,1.21-3.53,1.85-1.6,3.12-1.6c.79,0,1.44,.25,1.96,.75v-1.66c0-1.02-.02-1.65-.07-1.89-.05-.24-.13-.39-.23-.48s-.24-.13-.39-.13c-.17,0-.4,.05-.68,.16l-.13-.34,2.67-1.1h.44v10.37c0,1.05,.02,1.69,.07,1.92,.05,.23,.13,.39,.24,.49,.11,.09,.23,.14,.38,.14,.18,0,.41-.06,.71-.17l.11,.34-2.66,1.11h-.45v-1.28Zm0-.69v-4.62c-.04-.44-.16-.85-.35-1.21-.2-.37-.46-.64-.78-.83-.32-.19-.64-.28-.95-.28-.58,0-1.09,.26-1.54,.77-.59,.68-.89,1.67-.89,2.98s.29,2.33,.86,3.03c.58,.7,1.21,1.05,1.92,1.05,.59,0,1.17-.3,1.72-.89Z"/><path class="cls-1" d="M48.35,205.53v5.43c0,1.04,.02,1.67,.07,1.9,.05,.23,.13,.39,.24,.49,.11,.09,.23,.14,.38,.14,.2,0,.43-.06,.69-.17l.14,.34-2.68,1.11h-.44v-1.9c-.77,.84-1.36,1.36-1.76,1.58-.4,.21-.83,.32-1.28,.32-.5,0-.94-.15-1.31-.44-.37-.29-.62-.67-.77-1.12-.14-.46-.22-1.1-.22-1.94v-4c0-.42-.04-.72-.14-.88s-.23-.29-.41-.38-.5-.13-.97-.12v-.36h3.14v6c0,.83,.15,1.38,.44,1.64,.29,.26,.64,.39,1.05,.39,.28,0,.6-.09,.96-.26,.36-.18,.78-.51,1.27-1.01v-5.08c0-.51-.09-.85-.28-1.03-.19-.18-.57-.28-1.16-.29v-.36h3.06Z"/><path class="cls-1" d="M55.6,213.2c-.92,.71-1.5,1.12-1.73,1.23-.35,.16-.73,.25-1.13,.25-.62,0-1.13-.21-1.53-.64-.4-.42-.6-.98-.6-1.67,0-.44,.1-.82,.29-1.14,.27-.44,.73-.86,1.4-1.25,.66-.39,1.76-.87,3.3-1.43v-.35c0-.89-.14-1.51-.43-1.84s-.7-.5-1.24-.5c-.41,0-.74,.11-.98,.33-.25,.22-.37,.48-.37,.76l.02,.57c0,.3-.08,.53-.23,.7s-.35,.25-.6,.25-.44-.08-.59-.25c-.15-.17-.23-.4-.23-.7,0-.56,.29-1.08,.86-1.55,.58-.47,1.38-.71,2.42-.71,.8,0,1.45,.13,1.96,.4,.38,.2,.67,.52,.85,.95,.12,.28,.18,.86,.18,1.72v3.04c0,.86,.02,1.38,.05,1.57,.03,.19,.09,.32,.16,.39s.16,.1,.26,.1c.1,0,.2-.02,.27-.07,.14-.08,.4-.32,.79-.71v.55c-.73,.98-1.43,1.47-2.1,1.47-.32,0-.57-.11-.76-.33-.19-.22-.29-.6-.29-1.14Zm0-.64v-3.42c-.99,.39-1.62,.67-1.91,.83-.52,.29-.88,.59-1.11,.9-.22,.31-.33,.66-.33,1.03,0,.47,.14,.86,.42,1.17,.28,.31,.6,.46,.97,.46,.5,0,1.15-.33,1.96-.98Z"/><path class="cls-1" d="M62.02,202.58v2.95h2.1v.69h-2.1v5.82c0,.58,.08,.97,.25,1.17,.17,.2,.38,.3,.64,.3,.21,0,.42-.07,.63-.2,.2-.13,.36-.33,.47-.59h.38c-.23,.64-.55,1.12-.97,1.44s-.85,.48-1.29,.48c-.3,0-.59-.08-.88-.25-.29-.17-.5-.41-.64-.71-.14-.31-.21-.79-.21-1.43v-6.03h-1.42v-.32c.36-.14,.73-.39,1.1-.73,.38-.34,.71-.75,1-1.22,.15-.25,.36-.7,.63-1.36h.3Z"/><path class="cls-1" d="M68.08,205.26v7.21c0,.56,.04,.94,.12,1.12,.08,.19,.2,.33,.36,.42,.16,.09,.45,.14,.88,.14v.35h-4.36v-.35c.44,0,.73-.04,.88-.13,.15-.08,.27-.23,.36-.42,.09-.2,.13-.57,.13-1.13v-3.46c0-.97-.03-1.6-.09-1.89-.05-.21-.12-.35-.22-.44s-.23-.12-.4-.12c-.18,0-.41,.05-.67,.15l-.14-.35,2.7-1.1h.43Zm-.81-4.69c.27,0,.51,.1,.7,.29,.19,.19,.29,.43,.29,.7s-.1,.51-.29,.71c-.19,.2-.43,.29-.7,.29s-.51-.1-.71-.29-.29-.43-.29-.71,.1-.51,.29-.7c.19-.19,.43-.29,.71-.29Z"/><path class="cls-1" d="M74.95,205.26c1.36,0,2.45,.52,3.27,1.55,.7,.88,1.05,1.89,1.05,3.04,0,.8-.19,1.62-.58,2.44-.39,.82-.92,1.44-1.59,1.86s-1.43,.63-2.26,.63c-1.35,0-2.43-.54-3.22-1.62-.67-.91-1.01-1.93-1.01-3.05,0-.82,.2-1.64,.61-2.45,.41-.81,.94-1.41,1.61-1.8,.67-.39,1.37-.58,2.12-.58Zm-.3,.64c-.35,0-.69,.1-1.04,.31-.35,.21-.63,.57-.85,1.08s-.32,1.18-.32,1.99c0,1.31,.26,2.43,.78,3.38,.52,.95,1.2,1.42,2.05,1.42,.63,0,1.16-.26,1.57-.78,.41-.52,.62-1.42,.62-2.69,0-1.59-.34-2.85-1.03-3.76-.46-.63-1.05-.94-1.77-.94Z"/><path class="cls-1" d="M83.2,207.16c1.05-1.27,2.05-1.9,3.01-1.9,.49,0,.91,.12,1.26,.37s.63,.65,.84,1.21c.14,.39,.21,.99,.21,1.8v3.83c0,.57,.05,.95,.14,1.16,.07,.16,.19,.29,.35,.38,.16,.09,.46,.14,.89,.14v.35h-4.44v-.35h.19c.42,0,.71-.06,.88-.19,.17-.13,.28-.31,.35-.56,.03-.1,.04-.41,.04-.92v-3.67c0-.82-.11-1.41-.32-1.78-.21-.37-.57-.55-1.07-.55-.78,0-1.55,.42-2.32,1.27v4.73c0,.61,.04,.98,.11,1.13,.09,.19,.22,.33,.38,.42,.16,.09,.48,.13,.97,.13v.35h-4.44v-.35h.2c.46,0,.77-.12,.93-.35s.24-.67,.24-1.33v-3.33c0-1.08-.02-1.73-.07-1.97-.05-.23-.12-.39-.22-.48-.1-.08-.24-.13-.41-.13-.18,0-.4,.05-.66,.15l-.15-.35,2.7-1.1h.42v1.9Z"/><path class="cls-1" d="M108.56,214.5h-3.54l-4.49-6.21c-.33,.01-.6,.02-.81,.02-.08,0-.18,0-.27,0-.1,0-.2,0-.3-.01v3.86c0,.84,.09,1.36,.27,1.56,.25,.29,.62,.43,1.12,.43h.52v.36h-5.69v-.36h.5c.56,0,.96-.18,1.21-.55,.14-.2,.21-.68,.21-1.44v-8.58c0-.84-.09-1.35-.27-1.56-.25-.29-.63-.43-1.14-.43h-.5v-.36h4.84c1.41,0,2.45,.1,3.12,.31,.67,.21,1.24,.58,1.7,1.14,.47,.55,.7,1.21,.7,1.97,0,.82-.27,1.52-.8,2.12s-1.36,1.03-2.47,1.27l2.74,3.81c.63,.88,1.17,1.46,1.62,1.74,.45,.29,1.04,.47,1.76,.55v.36Zm-9.43-6.83c.12,0,.23,0,.32,0,.09,0,.17,0,.22,0,1.27,0,2.22-.27,2.86-.82,.64-.55,.96-1.25,.96-2.1s-.26-1.5-.78-2.02-1.21-.78-2.06-.78c-.38,0-.89,.06-1.54,.19v5.52Z"/><path class="cls-1" d="M110.51,208.91c0,1.33,.32,2.38,.97,3.13,.65,.76,1.42,1.14,2.3,1.14,.59,0,1.1-.16,1.53-.48,.43-.32,.8-.88,1.09-1.66l.3,.2c-.14,.89-.54,1.71-1.2,2.44s-1.49,1.1-2.48,1.1c-1.08,0-2-.42-2.77-1.26-.77-.84-1.15-1.97-1.15-3.38,0-1.53,.39-2.73,1.18-3.59,.79-.86,1.77-1.29,2.96-1.29,1,0,1.83,.33,2.48,.99,.65,.66,.97,1.55,.97,2.66h-6.2Zm0-.57h4.15c-.03-.58-.1-.98-.21-1.21-.16-.37-.41-.65-.73-.86s-.66-.31-1.01-.31c-.54,0-1.03,.21-1.45,.63-.43,.42-.68,1.01-.75,1.76Z"/><path class="cls-1" d="M123.71,205.26v3.06h-.32c-.25-.96-.57-1.61-.95-1.96-.39-.35-.88-.52-1.48-.52-.46,0-.83,.12-1.11,.36-.28,.24-.42,.51-.42,.8,0,.37,.1,.68,.31,.94,.2,.27,.61,.55,1.23,.85l1.43,.7c1.33,.65,1.99,1.5,1.99,2.56,0,.82-.31,1.47-.93,1.97-.62,.5-1.31,.75-2.07,.75-.55,0-1.18-.1-1.88-.29-.21-.07-.39-.1-.53-.1-.15,0-.27,.08-.35,.25h-.32v-3.2h.32c.18,.91,.53,1.6,1.05,2.07,.52,.46,1.09,.7,1.73,.7,.45,0,.82-.13,1.1-.4s.43-.58,.43-.96c0-.45-.16-.83-.47-1.14-.32-.31-.95-.7-1.9-1.17-.95-.47-1.57-.89-1.86-1.27-.29-.37-.44-.84-.44-1.41,0-.74,.25-1.35,.76-1.85s1.16-.74,1.96-.74c.35,0,.78,.08,1.28,.22,.33,.1,.55,.15,.67,.15,.1,0,.19-.02,.25-.07s.13-.15,.21-.3h.32Z"/><path class="cls-1" d="M127.22,208.91c0,1.33,.32,2.38,.97,3.13,.65,.76,1.42,1.14,2.3,1.14,.59,0,1.1-.16,1.53-.48,.43-.32,.8-.88,1.09-1.66l.3,.2c-.14,.89-.54,1.71-1.2,2.44s-1.49,1.1-2.48,1.1c-1.08,0-2-.42-2.77-1.26-.77-.84-1.15-1.97-1.15-3.38,0-1.53,.39-2.73,1.18-3.59,.79-.86,1.77-1.29,2.96-1.29,1,0,1.83,.33,2.48,.99,.65,.66,.97,1.55,.97,2.66h-6.2Zm0-.57h4.15c-.03-.58-.1-.98-.21-1.21-.16-.37-.41-.65-.73-.86s-.66-.31-1.01-.31c-.54,0-1.03,.21-1.45,.63-.43,.42-.68,1.01-.75,1.76Z"/><path class="cls-1" d="M139.7,213.2c-.92,.71-1.5,1.12-1.73,1.23-.35,.16-.73,.25-1.13,.25-.62,0-1.13-.21-1.53-.64-.4-.42-.6-.98-.6-1.67,0-.44,.1-.82,.29-1.14,.27-.44,.73-.86,1.4-1.25,.66-.39,1.76-.87,3.3-1.43v-.35c0-.89-.14-1.51-.43-1.84s-.7-.5-1.24-.5c-.41,0-.74,.11-.98,.33-.25,.22-.37,.48-.37,.76l.02,.57c0,.3-.08,.53-.23,.7s-.35,.25-.6,.25-.44-.08-.59-.25c-.15-.17-.23-.4-.23-.7,0-.56,.29-1.08,.86-1.55,.58-.47,1.38-.71,2.42-.71,.8,0,1.45,.13,1.96,.4,.38,.2,.67,.52,.85,.95,.12,.28,.18,.86,.18,1.72v3.04c0,.86,.02,1.38,.05,1.57,.03,.19,.09,.32,.16,.39s.16,.1,.26,.1c.1,0,.2-.02,.27-.07,.14-.08,.4-.32,.79-.71v.55c-.73,.98-1.43,1.47-2.1,1.47-.32,0-.57-.11-.76-.33-.19-.22-.29-.6-.29-1.14Zm0-.64v-3.42c-.99,.39-1.62,.67-1.91,.83-.52,.29-.88,.59-1.11,.9-.22,.31-.33,.66-.33,1.03,0,.47,.14,.86,.42,1.17,.28,.31,.6,.46,.97,.46,.5,0,1.15-.33,1.96-.98Z"/><path class="cls-1" d="M146.14,205.26v2.02c.75-1.35,1.52-2.02,2.31-2.02,.36,0,.66,.11,.89,.33,.24,.22,.35,.47,.35,.76,0,.25-.08,.47-.25,.65-.17,.18-.37,.26-.61,.26s-.49-.11-.77-.34c-.28-.23-.5-.34-.63-.34-.12,0-.25,.06-.38,.2-.29,.27-.6,.71-.91,1.32v4.3c0,.5,.06,.87,.19,1.13,.08,.18,.23,.32,.45,.44,.22,.12,.53,.18,.93,.18v.35h-4.59v-.35c.46,0,.8-.07,1.02-.22,.16-.1,.28-.27,.34-.5,.03-.11,.05-.43,.05-.95v-3.48c0-1.04-.02-1.67-.06-1.87-.04-.2-.12-.34-.23-.44s-.26-.14-.43-.14c-.2,0-.43,.05-.69,.15l-.1-.35,2.71-1.1h.41Z"/><path class="cls-1" d="M157.81,211.09c-.24,1.18-.71,2.09-1.42,2.73s-1.49,.96-2.34,.96c-1.02,0-1.91-.43-2.66-1.28-.76-.86-1.14-2.01-1.14-3.47s.42-2.56,1.26-3.44c.84-.88,1.85-1.32,3.02-1.32,.88,0,1.61,.23,2.17,.7,.57,.47,.85,.95,.85,1.45,0,.25-.08,.45-.24,.6s-.38,.23-.67,.23c-.38,0-.68-.12-.87-.37-.11-.14-.18-.4-.22-.78-.04-.38-.17-.68-.4-.88-.23-.2-.54-.29-.95-.29-.65,0-1.18,.24-1.58,.72-.53,.64-.79,1.49-.79,2.54s.26,2.02,.79,2.83c.53,.82,1.24,1.23,2.13,1.23,.64,0,1.21-.22,1.72-.66,.36-.3,.71-.85,1.05-1.64l.28,.14Z"/><path class="cls-1" d="M161.73,200.57v6.56c.72-.8,1.3-1.31,1.72-1.53,.42-.23,.85-.34,1.27-.34,.51,0,.95,.14,1.31,.42,.37,.28,.64,.72,.81,1.32,.12,.42,.19,1.18,.19,2.29v3.17c0,.57,.05,.96,.14,1.17,.06,.16,.18,.28,.33,.37,.16,.09,.44,.14,.86,.14v.35h-4.41v-.35h.21c.42,0,.71-.06,.87-.19,.16-.13,.28-.31,.34-.56,.02-.1,.03-.41,.03-.92v-3.17c0-.98-.05-1.62-.15-1.93-.1-.31-.26-.54-.48-.69s-.49-.23-.8-.23-.65,.08-1,.25c-.35,.17-.76,.51-1.24,1.03v4.74c0,.61,.03,1,.1,1.15,.07,.15,.2,.28,.38,.38,.19,.1,.51,.15,.96,.15v.35h-4.45v-.35c.4,0,.71-.06,.94-.19,.13-.06,.24-.19,.31-.37,.08-.18,.12-.55,.12-1.12v-8.12c0-1.02-.02-1.65-.07-1.89-.05-.24-.12-.39-.22-.48-.1-.08-.24-.13-.41-.13-.14,0-.36,.05-.67,.16l-.14-.34,2.68-1.1h.45Z"/><path class="cls-1" d="M177.7,201.94v5.25h2.92c.76,0,1.26-.11,1.52-.34,.34-.3,.53-.83,.57-1.59h.36v4.62h-.36c-.09-.65-.18-1.06-.27-1.24-.12-.23-.31-.41-.58-.54-.27-.13-.68-.2-1.23-.2h-2.92v4.38c0,.59,.03,.94,.08,1.07,.05,.13,.14,.23,.27,.3s.38,.11,.74,.11h2.25c.75,0,1.3-.05,1.64-.16s.67-.31,.98-.62c.4-.41,.82-1.02,1.24-1.83h.39l-1.15,3.33h-10.23v-.36h.47c.31,0,.61-.08,.89-.23,.21-.1,.35-.26,.43-.47s.11-.64,.11-1.28v-8.63c0-.84-.08-1.36-.25-1.56-.24-.26-.63-.39-1.18-.39h-.47v-.36h10.23l.15,2.91h-.38c-.14-.7-.29-1.18-.46-1.44-.17-.26-.41-.46-.74-.6-.26-.1-.72-.15-1.38-.15h-3.64Z"/><path class="cls-1" d="M186.03,205.53h4.22v.36c-.27,0-.46,.04-.56,.14s-.16,.21-.16,.36,.11,.4,.34,.72c.07,.1,.18,.27,.32,.49l.64,1.02,.73-1.02c.47-.65,.71-1.05,.71-1.22,0-.14-.05-.25-.17-.35s-.29-.14-.54-.14v-.36h3.04v.36c-.32,.02-.6,.11-.83,.26-.32,.22-.76,.71-1.31,1.45l-1.22,1.64,2.23,3.21c.55,.79,.94,1.27,1.17,1.42,.24,.16,.54,.25,.91,.27v.35h-4.23v-.35c.29,0,.52-.07,.69-.2,.12-.09,.19-.21,.19-.36s-.21-.53-.63-1.14l-1.31-1.92-1.44,1.92c-.44,.59-.67,.95-.67,1.06,0,.16,.07,.3,.22,.43,.15,.13,.37,.2,.66,.21v.35h-2.93v-.35c.24-.03,.44-.11,.62-.25,.25-.19,.67-.67,1.25-1.45l1.88-2.5-1.7-2.47c-.48-.71-.86-1.15-1.12-1.33-.26-.18-.6-.27-.99-.27v-.36Z"/><path class="cls-1" d="M199.05,200.57v6.56c.72-.8,1.3-1.31,1.72-1.53,.42-.23,.85-.34,1.27-.34,.51,0,.95,.14,1.31,.42,.37,.28,.64,.72,.81,1.32,.12,.42,.19,1.18,.19,2.29v3.17c0,.57,.05,.96,.14,1.17,.06,.16,.18,.28,.33,.37,.16,.09,.44,.14,.86,.14v.35h-4.41v-.35h.21c.42,0,.71-.06,.87-.19,.16-.13,.28-.31,.34-.56,.02-.1,.03-.41,.03-.92v-3.17c0-.98-.05-1.62-.15-1.93-.1-.31-.26-.54-.48-.69s-.49-.23-.8-.23-.65,.08-1,.25c-.35,.17-.76,.51-1.24,1.03v4.74c0,.61,.03,1,.1,1.15,.07,.15,.2,.28,.38,.38,.19,.1,.51,.15,.96,.15v.35h-4.45v-.35c.4,0,.71-.06,.94-.19,.13-.06,.24-.19,.31-.37,.08-.18,.12-.55,.12-1.12v-8.12c0-1.02-.02-1.65-.07-1.89-.05-.24-.12-.39-.22-.48-.1-.08-.24-.13-.41-.13-.14,0-.36,.05-.67,.16l-.14-.34,2.68-1.1h.45Z"/><path class="cls-1" d="M209.54,205.26v7.21c0,.56,.04,.94,.12,1.12,.08,.19,.2,.33,.36,.42,.16,.09,.45,.14,.88,.14v.35h-4.36v-.35c.44,0,.73-.04,.88-.13,.15-.08,.27-.23,.36-.42,.09-.2,.13-.57,.13-1.13v-3.46c0-.97-.03-1.6-.09-1.89-.05-.21-.12-.35-.22-.44s-.23-.12-.4-.12c-.18,0-.41,.05-.67,.15l-.14-.35,2.7-1.1h.43Zm-.81-4.69c.27,0,.51,.1,.7,.29,.19,.19,.29,.43,.29,.7s-.1,.51-.29,.71c-.19,.2-.43,.29-.7,.29s-.51-.1-.71-.29-.29-.43-.29-.71,.1-.51,.29-.7c.19-.19,.43-.29,.71-.29Z"/><path class="cls-1" d="M214.47,207.07c.87-1.21,1.8-1.81,2.81-1.81,.92,0,1.72,.39,2.41,1.18,.68,.79,1.03,1.86,1.03,3.23,0,1.59-.53,2.88-1.59,3.85-.91,.84-1.92,1.25-3.04,1.25-.52,0-1.05-.09-1.59-.28-.54-.19-1.09-.47-1.65-.85v-9.29c0-1.02-.02-1.64-.07-1.88s-.13-.39-.23-.48-.23-.13-.39-.13c-.18,0-.41,.05-.69,.16l-.14-.34,2.69-1.1h.44v6.5Zm0,.63v5.37c.33,.33,.68,.57,1.03,.74,.36,.17,.72,.25,1.09,.25,.59,0,1.15-.33,1.66-.98,.51-.65,.77-1.6,.77-2.85,0-1.15-.26-2.03-.77-2.65-.51-.62-1.09-.92-1.75-.92-.35,0-.69,.09-1.04,.26-.26,.13-.59,.39-1,.78Z"/><path class="cls-1" d="M225.14,205.26v7.21c0,.56,.04,.94,.12,1.12,.08,.19,.2,.33,.36,.42,.16,.09,.45,.14,.88,.14v.35h-4.36v-.35c.44,0,.73-.04,.88-.13,.15-.08,.27-.23,.36-.42,.09-.2,.13-.57,.13-1.13v-3.46c0-.97-.03-1.6-.09-1.89-.05-.21-.12-.35-.22-.44s-.23-.12-.4-.12c-.18,0-.41,.05-.67,.15l-.14-.35,2.7-1.1h.43Zm-.81-4.69c.27,0,.51,.1,.7,.29,.19,.19,.29,.43,.29,.7s-.1,.51-.29,.71c-.19,.2-.43,.29-.7,.29s-.51-.1-.71-.29-.29-.43-.29-.71,.1-.51,.29-.7c.19-.19,.43-.29,.71-.29Z"/><path class="cls-1" d="M230.22,202.58v2.95h2.1v.69h-2.1v5.82c0,.58,.08,.97,.25,1.17,.17,.2,.38,.3,.64,.3,.21,0,.42-.07,.63-.2,.2-.13,.36-.33,.47-.59h.38c-.23,.64-.55,1.12-.97,1.44s-.85,.48-1.29,.48c-.3,0-.59-.08-.88-.25-.29-.17-.5-.41-.64-.71-.14-.31-.21-.79-.21-1.43v-6.03h-1.42v-.32c.36-.14,.73-.39,1.1-.73,.38-.34,.71-.75,1-1.22,.15-.25,.36-.7,.63-1.36h.3Z"/><path class="cls-1" d="M236.28,205.26v7.21c0,.56,.04,.94,.12,1.12,.08,.19,.2,.33,.36,.42,.16,.09,.45,.14,.88,.14v.35h-4.36v-.35c.44,0,.73-.04,.88-.13,.15-.08,.27-.23,.36-.42,.09-.2,.13-.57,.13-1.13v-3.46c0-.97-.03-1.6-.09-1.89-.05-.21-.12-.35-.22-.44s-.23-.12-.4-.12c-.18,0-.41,.05-.67,.15l-.14-.35,2.7-1.1h.43Zm-.81-4.69c.27,0,.51,.1,.7,.29,.19,.19,.29,.43,.29,.7s-.1,.51-.29,.71c-.19,.2-.43,.29-.7,.29s-.51-.1-.71-.29-.29-.43-.29-.71,.1-.51,.29-.7c.19-.19,.43-.29,.71-.29Z"/><path class="cls-1" d="M243.15,205.26c1.36,0,2.45,.52,3.27,1.55,.7,.88,1.05,1.89,1.05,3.04,0,.8-.19,1.62-.58,2.44-.39,.82-.92,1.44-1.59,1.86s-1.43,.63-2.26,.63c-1.35,0-2.43-.54-3.22-1.62-.67-.91-1.01-1.93-1.01-3.05,0-.82,.2-1.64,.61-2.45,.41-.81,.94-1.41,1.61-1.8,.67-.39,1.37-.58,2.12-.58Zm-.3,.64c-.35,0-.69,.1-1.04,.31-.35,.21-.63,.57-.85,1.08s-.32,1.18-.32,1.99c0,1.31,.26,2.43,.78,3.38,.52,.95,1.2,1.42,2.05,1.42,.63,0,1.16-.26,1.57-.78,.41-.52,.62-1.42,.62-2.69,0-1.59-.34-2.85-1.03-3.76-.46-.63-1.05-.94-1.77-.94Z"/><path class="cls-1" d="M251.4,207.16c1.05-1.27,2.05-1.9,3.01-1.9,.49,0,.91,.12,1.26,.37s.63,.65,.84,1.21c.14,.39,.21,.99,.21,1.8v3.83c0,.57,.05,.95,.14,1.16,.07,.16,.19,.29,.35,.38,.16,.09,.46,.14,.89,.14v.35h-4.44v-.35h.19c.42,0,.71-.06,.88-.19,.17-.13,.28-.31,.35-.56,.03-.1,.04-.41,.04-.92v-3.67c0-.82-.11-1.41-.32-1.78-.21-.37-.57-.55-1.07-.55-.78,0-1.55,.42-2.32,1.27v4.73c0,.61,.04,.98,.11,1.13,.09,.19,.22,.33,.38,.42,.16,.09,.48,.13,.97,.13v.35h-4.44v-.35h.2c.46,0,.77-.12,.93-.35s.24-.67,.24-1.33v-3.33c0-1.08-.02-1.73-.07-1.97-.05-.23-.12-.39-.22-.48-.1-.08-.24-.13-.41-.13-.18,0-.4,.05-.66,.15l-.15-.35,2.7-1.1h.42v1.9Z"/></g><g><path class="cls-1" d="M3.01,145.68c.68,2.45,.28,4.35-.3,5.2-.42,.6-1.26,.85-1.66,.39-.3-.44-.12-.96,.33-1.38,.61-.76,1.29-2.61,1.22-4.24l.42,.02Zm4-3.87c-.07,.32-.26,.55-.84,.64v19.59c0,.23-.75,.62-1.43,.62h-.35v-21.15l2.62,.3Zm-.28,3.16c3.72,2.04,2.08,4.79,.79,3.53-.02-1.1-.56-2.52-1.1-3.39l.3-.14Zm14.17,2.89s1.29,.99,2.08,1.72c-.07,.25-.3,.37-.63,.37H8.13l-.19-.69h6.27v-2.04h-4.46l-.19-.67h4.65v-1.9h-5.49l-.19-.67h5.68v-2.36l2.59,.25c-.05,.3-.23,.5-.77,.6v1.51h3.34l1.12-1.4s1.31,1.01,2.08,1.7c-.07,.25-.26,.37-.58,.37h-5.96v1.9h2.78l1.08-1.35s1.24,.94,2.01,1.65c-.07,.25-.3,.37-.63,.37h-5.24v2.04h3.74l1.12-1.4Zm-1.5,2.7l2.17,1.6c-.16,.18-.51,.37-1,.46v7.65c0,1.33-.28,2.13-2.5,2.34-.05-.57-.14-1.01-.4-1.28-.3-.3-.75-.5-1.66-.64v-.34s1.85,.14,2.27,.14c.37,0,.47-.14,.47-.46v-2.29h-6.87v4.26c0,.18-.75,.62-1.52,.62h-.3v-11.85l1.96,.85h6.5l.89-1.05Zm-7.53,1.74v2.02h6.87v-2.02h-6.87Zm6.87,4.77v-2.09h-6.87v2.09h6.87Z"/><path class="cls-1" d="M34.05,146.68s1.26,1.05,2.03,1.76c-.05,.25-.28,.37-.61,.37h-10.4l-.19-.64h4.42v-2.89h-3.65l-.19-.67h3.83v-3.14l2.55,.25c-.05,.28-.23,.48-.77,.57v2.31h1.38l1.08-1.4s1.21,.99,1.96,1.7c-.05,.25-.3,.37-.63,.37h-3.79v2.89h1.82l1.15-1.49Zm-.05,4.84s1.26,1.01,2.03,1.72c-.07,.25-.3,.37-.63,.37h-4.33v3.16h1.61l1.12-1.47s1.24,1.05,2.01,1.79c-.07,.23-.3,.34-.63,.34h-4.11v4.72c0,.11-.58,.5-1.5,.5h-.28v-5.23h-3.9l-.16-.67h4.07v-3.16h-4.23l-.19-.69h6.19c.35-1.19,.75-2.82,.98-4.03l2.52,.78c-.09,.25-.37,.46-.89,.44-.51,.78-1.26,1.9-2.06,2.82h1.26l1.1-1.4Zm-7.13-2.47c3.88,1.99,2.01,4.86,.61,3.48,.02-1.12-.44-2.48-.89-3.39l.28-.09Zm19.59,2.38c-.16,.21-.37,.3-.87,.34-.47,2.15-1.24,4.33-2.48,6.28,1.1,1.17,2.41,2.11,3.86,2.8l-.05,.23c-.77,.09-1.4,.62-1.73,1.44-1.21-.85-2.24-1.86-3.08-3.07-.98,1.19-2.2,2.29-3.72,3.19l-.23-.32c1.36-1.1,2.41-2.48,3.25-3.99-1.03-1.83-1.71-4.08-2.13-6.78h-1.17v10.4c0,.23-.63,.69-1.45,.69h-.33v-20.42l1.89,.87h5.05l.86-1.01,2.13,1.56c-.12,.14-.49,.34-.98,.41v3.23c0,1.24-.3,2.04-2.71,2.25-.07-.53-.19-.94-.51-1.21-.37-.23-.94-.48-2.03-.6v-.37s2.38,.18,2.97,.18c.4,0,.51-.14,.51-.46v-3.35h-5.4v7.15h5.45l1.05-1.03,1.85,1.58Zm-6.71,.12c.49,2.06,1.31,3.85,2.41,5.32,.72-1.7,1.24-3.51,1.54-5.32h-3.95Z"/><path class="cls-1" d="M54.45,150.56c4.98,1.83,3.58,4.93,1.99,3.78-.3-1.03-1.17-2.25-1.99-3.19v10.93c0,.14-.63,.57-1.52,.57h-.3v-9.63c-1.12,1.99-2.57,3.76-4.3,5.25l-.33-.3c1.99-2.43,3.44-5.73,4.28-8.92h-3.58l-.19-.67h4.11v-3.87c-1.31,.25-2.71,.48-4.02,.6l-.12-.34c2.64-.76,5.84-2.13,7.46-3.19l2.2,1.88c-.19,.21-.63,.21-1.24,.02-.7,.21-1.54,.44-2.46,.67v4.24h.96l1.08-1.42s1.22,1.01,1.92,1.72c-.05,.25-.28,.37-.58,.37h-3.37v1.49Zm13.98,2.34s1.26,.87,2.06,1.49c0,.25-.23,.44-.51,.48l-3.3,.62v6.44c0,.23-.77,.67-1.47,.67h-.35v-6.76l-7.9,1.49-.3-.6,8.21-1.56v-13.18l2.67,.28c-.07,.32-.26,.57-.84,.66v11.9l.82-.16,.94-1.76Zm-9.82-3.48c5.89,1.01,4.63,4.79,2.69,3.62-.4-1.17-1.75-2.61-2.9-3.42l.21-.21Zm.54-5.48c5.77,1.15,4.49,4.9,2.59,3.71-.4-1.21-1.71-2.68-2.83-3.53l.23-.18Z"/><path class="cls-1" d="M93.44,147.23c-.19,.21-.44,.25-.91,.27-.82,.78-2.34,1.86-3.44,2.48l-.26-.18c.42-.71,.96-1.81,1.31-2.68h-15.15c.09,1.6-.56,2.7-1.26,3.19-.68,.46-1.57,.46-1.82-.14-.28-.57,.09-1.1,.61-1.42,.98-.57,1.82-2.15,1.64-3.85l.35-.02c.21,.55,.35,1.08,.42,1.56h10.36c.98-1.42,2.03-3.39,2.67-4.88l2.71,.96c-.09,.28-.37,.44-.91,.39-.89,1.08-2.29,2.45-3.65,3.53h4.04l1.17-1.17,2.13,1.97Zm-2.52,6.1s1.47,1.12,2.34,1.93c-.07,.25-.3,.37-.61,.37h-9.07v4.47c0,1.47-.35,2.34-3.16,2.59-.09-.6-.26-1.03-.68-1.35-.47-.3-1.15-.55-2.52-.73v-.34s3.2,.23,3.81,.23c.44,0,.58-.14,.58-.5v-4.35h-9.54l-.19-.67h9.72v-2.41l1.47,.14c.84-.69,1.87-1.6,2.59-2.38h-9.68l-.21-.66h10.19l1.17-1.1,1.96,1.86c-.19,.16-.47,.18-.96,.23-1.01,.69-2.64,1.51-4.09,2.15l.28,.02c-.05,.32-.28,.5-.77,.57v1.58h6.05l1.29-1.63Zm-15.38-11.48c5.28,1.67,3.65,5.36,1.85,4.01-.19-1.28-1.19-2.86-2.08-3.85l.23-.16Zm5.26-.37c5.05,2.02,3.06,5.68,1.33,4.15-.02-1.38-.82-2.96-1.59-3.99l.26-.16Z"/><path class="cls-1" d="M101.03,145.17h-6.24l-.14-.66h6.38v-2.98l2.67,.25c-.02,.3-.23,.53-.82,.62v2.11h4.84v-2.98l2.71,.25c-.05,.32-.26,.53-.84,.62v2.11h3.13l1.22-1.56s1.4,1.1,2.17,1.86c-.05,.25-.28,.37-.61,.37h-5.91v2.13c0,.21-.7,.5-1.54,.53h-.33v-2.66h-4.84v2.25c0,.23-.82,.5-1.54,.5h-.3v-2.75Zm12.76,6.33s1.43,1.12,2.27,1.88c-.05,.25-.28,.37-.61,.37h-10.52c-1.1,2.02-2.57,4.35-3.9,5.96,2.88-.11,6.41-.3,10.1-.5-1.03-1.31-2.31-2.52-3.46-3.42l.23-.21c8.6,3.05,7.43,8.27,5.07,6.74-.28-.83-.79-1.74-1.47-2.64-3.34,.62-7.92,1.28-14.31,2.13-.14,.25-.4,.44-.66,.48l-1.08-2.41c1.08,0,2.69-.07,4.65-.14,.82-1.7,1.75-4.17,2.29-6h-7.34l-.16-.67h17.63l1.26-1.58Zm-3.46-2.5l1.19-1.47s1.36,1.03,2.2,1.79c-.07,.25-.3,.37-.61,.37h-15.64l-.16-.69h13.02Z"/><path class="cls-1" d="M124.68,147.85c-.14,.23-.35,.34-.91,.25-.44,.73-1,1.58-1.66,2.45l.98,.34c-.07,.21-.28,.37-.7,.44v10.77c-.02,.14-.77,.53-1.47,.53h-.3v-10.24c-.79,.89-1.68,1.76-2.64,2.5l-.26-.25c1.89-2.29,3.65-5.73,4.46-8.04l2.5,1.26Zm-.21-4.97c-.12,.25-.35,.34-.89,.25-1.17,1.58-3.18,3.69-5.4,5.09l-.23-.25c1.66-1.79,3.32-4.49,4.09-6.35l2.43,1.26Zm-1.03,15.77c1-2.45,1.66-5.84,1.85-9.17l2.46,.39c-.07,.3-.28,.53-.79,.57-.56,3.3-1.57,6.37-3.13,8.41l-.37-.21Zm6.15-11.55v14.76c0,.23-.77,.66-1.45,.66h-.33v-15.42h-3.46l-.19-.67h3.65v-4.63l2.59,.28c-.07,.32-.26,.55-.82,.64v3.71h1.43l1-1.12c-.09-.05-.16-.09-.26-.16-.09-.87-.7-1.95-1.24-2.59l.26-.16c3.2,1.08,2.67,3.05,1.61,3,.4,.3,1.17,.85,1.71,1.33-.07,.25-.28,.37-.61,.37h-3.9Zm1.03,2.2c4.54,4.95,2.22,9.08,1.08,7.29-.02-1.7-.3-4.93-1.43-7.13l.35-.16Zm7.04-1.88s1.36,1.05,2.15,1.81c-.07,.25-.28,.37-.61,.37h-1.85v10.63c0,1.31-.3,2.25-2.55,2.45-.02-.53-.14-.99-.4-1.26-.3-.28-.82-.5-1.82-.62v-.34s2.06,.14,2.48,.14c.4,0,.49-.12,.49-.44v-10.57h-2.76l-.19-.69h3.88l1.17-1.49Zm-4.16-3l-.19-.67h2.92l1.12-1.44s1.31,1.03,2.08,1.74c-.07,.25-.26,.37-.58,.37h-5.35Z"/><path class="cls-1" d="M153.48,148.98c.82,4.31,3.37,8.82,10.19,11.78l-.02,.28c-1,.14-1.66,.6-1.89,1.65-6.17-3.41-8.02-8.92-8.7-13.5-.68,5.36-2.88,10.08-10.99,13.48l-.28-.37c6.76-3.67,8.7-8.16,9.28-13.32h-8.86l-.16-.66h9.09c.19-2.13,.16-4.4,.16-6.74l2.9,.3c-.07,.34-.26,.57-.79,.64-.05,1.99-.07,3.92-.26,5.8h6.31l1.38-1.7s1.61,1.19,2.55,1.99c-.05,.25-.3,.37-.61,.37h-9.3Z"/><path class="cls-1" d="M186.92,147.23c-.19,.21-.44,.25-.91,.27-.82,.78-2.34,1.86-3.44,2.48l-.26-.18c.42-.71,.96-1.81,1.31-2.68h-15.15c.09,1.6-.56,2.7-1.26,3.19-.68,.46-1.57,.46-1.82-.14-.28-.57,.09-1.1,.61-1.42,.98-.57,1.82-2.15,1.64-3.85l.35-.02c.21,.55,.35,1.08,.42,1.56h10.36c.98-1.42,2.03-3.39,2.67-4.88l2.71,.96c-.09,.28-.37,.44-.91,.39-.89,1.08-2.29,2.45-3.65,3.53h4.04l1.17-1.17,2.13,1.97Zm-2.52,6.1s1.47,1.12,2.34,1.93c-.07,.25-.3,.37-.61,.37h-9.07v4.47c0,1.47-.35,2.34-3.16,2.59-.09-.6-.26-1.03-.68-1.35-.47-.3-1.15-.55-2.52-.73v-.34s3.2,.23,3.81,.23c.44,0,.58-.14,.58-.5v-4.35h-9.54l-.19-.67h9.72v-2.41l1.47,.14c.84-.69,1.87-1.6,2.59-2.38h-9.68l-.21-.66h10.19l1.17-1.1,1.96,1.86c-.19,.16-.47,.18-.96,.23-1.01,.69-2.64,1.51-4.09,2.15l.28,.02c-.05,.32-.28,.5-.77,.57v1.58h6.05l1.29-1.63Zm-15.38-11.48c5.28,1.67,3.65,5.36,1.85,4.01-.19-1.28-1.19-2.86-2.08-3.85l.23-.16Zm5.26-.37c5.05,2.02,3.06,5.68,1.33,4.15-.02-1.38-.82-2.96-1.59-3.99l.26-.16Z"/><path class="cls-1" d="M197.25,143.87c-.16,.21-.51,.27-1.03,.3-.7,1.31-2.01,3.76-2.97,5.06,2.13,1.6,2.99,3.53,2.99,5.23,0,2.11-.75,3.14-2.95,3.23,0-.5-.07-1.15-.26-1.35-.16-.21-.56-.34-1.05-.41v-.34h1.4c.26,0,.4-.02,.56-.14,.3-.18,.49-.62,.49-1.4,0-1.54-.44-3.19-1.78-4.77,.51-1.35,1.19-3.87,1.61-5.59h-2.55v18.4c0,.14-.58,.62-1.47,.62h-.3v-20.51l2.06,.83h2.15l1.1-1.03,1.99,1.88Zm13,16.39c.49,.23,.58,.44,.58,.78,0,.73-.65,1.08-3.37,1.08h-1.64c-1.61,0-1.92-.39-1.92-1.6v-7.7h-2.24c-.33,5.25-1.99,8.16-7.74,9.83l-.12-.34c4.67-2.15,5.75-4.9,5.91-9.49h-3.2l-.16-.64h11.01l1.15-1.49s1.33,1.03,2.1,1.79c-.07,.25-.3,.34-.61,.34h-4.33v7.24c0,.3,.07,.39,.61,.39h2.48c.21-.02,.28-.07,.37-.28,.16-.37,.47-1.67,.72-2.98h.3l.07,3.07Zm.63-14.83c-.19,.21-.44,.23-.86,.25-.61,.5-1.68,1.26-2.38,1.67l-.28-.16c.16-.48,.4-1.21,.56-1.86h-9.44c.02,1.1-.33,1.9-.79,2.31-.51,.44-1.38,.46-1.68-.14-.26-.55,.07-1.08,.56-1.42,.63-.46,1.21-1.7,1.12-2.8h.4c.16,.48,.28,.94,.35,1.38h3.51v-3.12l2.67,.25c-.05,.32-.28,.55-.84,.62v2.25h4.07l1.1-1.08,1.96,1.83Zm-4.07,1.72s1.29,.99,2.06,1.67c-.07,.25-.3,.37-.63,.37h-10.59l-.19-.66h8.25l1.1-1.38Z"/><path class="cls-1" d="M224.06,148.98c.82,4.31,3.37,8.82,10.19,11.78l-.02,.28c-1,.14-1.66,.6-1.89,1.65-6.17-3.41-8.02-8.92-8.7-13.5-.68,5.36-2.88,10.08-10.99,13.48l-.28-.37c6.76-3.67,8.7-8.16,9.28-13.32h-8.86l-.16-.66h9.09c.19-2.13,.16-4.4,.16-6.74l2.9,.3c-.07,.34-.26,.57-.79,.64-.05,1.99-.07,3.92-.26,5.8h6.31l1.38-1.7s1.61,1.19,2.55,1.99c-.05,.25-.3,.37-.61,.37h-9.3Z"/><path class="cls-1" d="M257.51,147.23c-.19,.21-.44,.25-.91,.27-.82,.78-2.34,1.86-3.44,2.48l-.26-.18c.42-.71,.96-1.81,1.31-2.68h-15.15c.09,1.6-.56,2.7-1.26,3.19-.68,.46-1.57,.46-1.82-.14-.28-.57,.09-1.1,.61-1.42,.98-.57,1.82-2.15,1.64-3.85l.35-.02c.21,.55,.35,1.08,.42,1.56h10.36c.98-1.42,2.03-3.39,2.67-4.88l2.71,.96c-.09,.28-.37,.44-.91,.39-.89,1.08-2.29,2.45-3.65,3.53h4.04l1.17-1.17,2.13,1.97Zm-2.53,6.1s1.47,1.12,2.34,1.93c-.07,.25-.3,.37-.61,.37h-9.07v4.47c0,1.47-.35,2.34-3.16,2.59-.09-.6-.26-1.03-.68-1.35-.47-.3-1.15-.55-2.52-.73v-.34s3.2,.23,3.81,.23c.44,0,.58-.14,.58-.5v-4.35h-9.54l-.19-.67h9.72v-2.41l1.47,.14c.84-.69,1.87-1.6,2.59-2.38h-9.68l-.21-.66h10.19l1.17-1.1,1.96,1.86c-.19,.16-.47,.18-.96,.23-1.01,.69-2.64,1.51-4.09,2.15l.28,.02c-.05,.32-.28,.5-.77,.57v1.58h6.05l1.29-1.63Zm-15.38-11.48c5.28,1.67,3.65,5.36,1.85,4.01-.19-1.28-1.19-2.86-2.08-3.85l.23-.16Zm5.26-.37c5.05,2.02,3.06,5.68,1.33,4.15-.02-1.38-.82-2.96-1.59-3.99l.26-.16Z"/><path class="cls-1" d="M4.28,173.98c-1.13,1.79-2.52,3.25-3.97,4.26l-.32-.25c1.5-1.7,2.97-4.45,3.85-7.38l2.45,.94c-.11,.25-.41,.44-.88,.39-.23,.46-.45,.92-.7,1.35h3.44l1.02-1.28s1.11,.92,1.81,1.6c-.04,.25-.27,.37-.59,.37H5.94c2.9,1.56,1.34,4.01,.07,2.82,.02-.96-.48-2.06-1-2.82h-.72Zm14.37,9.3l1.88,1.54c-.14,.16-.43,.28-.88,.32-.25,2.93-.82,4.65-1.75,5.32-.59,.41-1.38,.6-2.24,.6,0-.48-.09-.96-.36-1.21-.29-.27-.97-.48-1.7-.62l.02-.37c.7,.07,2.02,.16,2.45,.16,.34,0,.52-.02,.7-.18,.45-.32,.86-1.72,1.09-3.92h-6.25v6.35c0,.12-.57,.53-1.5,.53h-.29v-5.43c-2.29,2.34-5.55,4.17-9.36,5.36l-.2-.34c3.4-1.54,6.37-3.94,8.2-6.46H4.01c-.14,.57-.29,1.12-.43,1.58-.45,.21-.93,.25-1.86-.05,.61-1.97,1.34-4.81,1.7-6.44l1.95,.92h4.44v-2.75H2.4l-.2-.67h14.37l.91-.96,1.95,1.47c-.14,.16-.45,.37-.84,.44v3.87c-.02,.16-.91,.55-1.52,.55h-.29v-1.26h-5.17v2.64h6.1l.95-.96Zm-8.84,.96v-2.64H4.85c-.18,.73-.41,1.7-.66,2.64h5.62Zm9.34-12.35s1.27,.99,2.04,1.72c-.04,.25-.29,.37-.59,.37h-5.51c2.67,1.47,1.27,3.74-.02,2.66-.07-.89-.59-1.92-1.16-2.66h-1.13c-.91,1.24-1.93,2.29-2.99,3.05l-.29-.23c1.09-1.47,2.24-3.8,2.9-6.19l2.49,.92c-.11,.27-.39,.46-.86,.41-.25,.46-.5,.92-.79,1.35h4.83l1.09-1.4Zm-7.55,9.03h5.17v-2.75h-5.17v2.75Z"/><path class="cls-1" d="M37.69,184.21c0,2.44-.37,4.42-1.04,5.44-.74,1.13-1.94,1.76-3.4,1.76-1.2,0-2.18-.34-3.84-1.33-1.46-.85-2.08-1.1-2.87-1.1-.88,0-1.74,.42-2.2,1.13-.21,.28-.35,.57-.58,1.19h-.56c-.02-.31-.05-.57-.05-.68,0-1.36,.49-2.72,1.39-3.99,.86-1.19,3.03-2.8,5.79-4.3,1.53-.85,2.34-1.47,2.89-2.29,.62-.91,.93-1.87,.93-2.89,0-2.66-1.97-4.59-4.68-4.59-1.41,0-2.82,.45-3.75,1.16-.37,.31-.67,.68-1.07,1.27,.23-.03,.42-.03,.58-.03,1.02,0,1.81,.96,1.81,2.21s-.79,2.21-1.83,2.21-1.81-.96-1.81-2.35c0-3.06,2.87-5.27,6.83-5.27,2.25,0,4.38,.74,5.51,1.93,.9,.93,1.37,2.15,1.37,3.6,0,1.7-.58,2.97-1.85,3.96-.67,.54-1.67,.99-3.66,1.73-5.32,1.95-7.45,3.82-7.75,6.91,.81-1.59,2.55-2.61,4.4-2.61,1.11,0,1.27,.03,5.19,1.1,.53,.14,1.09,.23,1.48,.23,.58,0,1.11-.25,1.41-.68,.46-.62,.79-2.01,.79-3.34v-.37h.58Z"/><path class="cls-1" d="M54.66,184.21c0,2.44-.37,4.42-1.04,5.44-.74,1.13-1.94,1.76-3.4,1.76-1.2,0-2.18-.34-3.84-1.33-1.46-.85-2.08-1.1-2.87-1.1-.88,0-1.74,.42-2.2,1.13-.21,.28-.35,.57-.58,1.19h-.56c-.02-.31-.05-.57-.05-.68,0-1.36,.49-2.72,1.39-3.99,.86-1.19,3.03-2.8,5.79-4.3,1.53-.85,2.34-1.47,2.89-2.29,.62-.91,.93-1.87,.93-2.89,0-2.66-1.97-4.59-4.68-4.59-1.41,0-2.82,.45-3.75,1.16-.37,.31-.67,.68-1.07,1.27,.23-.03,.42-.03,.58-.03,1.02,0,1.81,.96,1.81,2.21s-.79,2.21-1.83,2.21-1.81-.96-1.81-2.35c0-3.06,2.87-5.27,6.83-5.27,2.25,0,4.38,.74,5.51,1.93,.9,.93,1.37,2.15,1.37,3.6,0,1.7-.58,2.97-1.85,3.96-.67,.54-1.67,.99-3.66,1.73-5.32,1.95-7.45,3.82-7.75,6.91,.81-1.59,2.55-2.61,4.4-2.61,1.11,0,1.27,.03,5.19,1.1,.53,.14,1.09,.23,1.48,.23,.58,0,1.11-.25,1.41-.68,.46-.62,.79-2.01,.79-3.34v-.37h.58Z"/><path class="cls-1" d="M78.33,172.72c-.16,.16-.5,.37-.95,.46v16.11c0,1.4-.29,2.2-2.58,2.43-.07-.55-.18-1.01-.48-1.28-.34-.3-.88-.5-1.88-.66v-.34s2.2,.16,2.67,.16c.41,0,.52-.16,.52-.5v-5.98h-4.06c-.32,3.23-1.31,6.37-4.55,8.62l-.32-.25c1.77-1.86,2.58-4.06,2.97-6.46-.09,.16-.27,.23-.52,.23h-11.81l-.18-.69h2.47v-9.58h-1.88l-.16-.67h2.04v-3.35l2.47,.25c-.07,.3-.25,.5-.77,.6v2.5h3.74v-3.37l2.54,.28c-.07,.32-.27,.53-.82,.62v2.47h.23l.88-1.28s1.02,.94,1.56,1.58c-.05,.25-.25,.37-.54,.37h-2.13v9.58h.25l.95-1.38s1.04,.96,1.72,1.65c.23-1.54,.27-3.14,.27-4.81v-8.66l2.02,.85h3.4l.86-1.08,2.06,1.6Zm-21.14,18.79c1.31-1.24,2.67-3.37,3.47-5.73l2.45,1.05c-.11,.23-.41,.41-.88,.34-1.22,2.11-2.95,3.69-4.74,4.61l-.29-.28Zm4.15-16.55v2.57h3.74v-2.57h-3.74Zm0,5.98h3.74v-2.75h-3.74v2.75Zm0,3.6h3.74v-2.93h-3.74v2.93Zm2.95,1.38c4.96,1.47,3.54,4.95,1.86,3.71-.23-1.21-1.25-2.68-2.11-3.53l.25-.18Zm11.35-3.48v-4.58h-3.94v2.13c0,.8-.02,1.63-.07,2.45h4.01Zm-3.94-9.6v4.38h3.94v-4.38h-3.94Z"/><path class="cls-1" d="M98.55,188.47s1.52,1.12,2.4,1.95c-.07,.25-.27,.37-.59,.37h-20.14l-.18-.66h9.38v-6.74h-6.64l-.16-.67h6.8v-5.8h-4.78c-1.29,2.2-2.81,4.03-4.46,5.36l-.32-.21c1.93-2.5,3.81-6.51,4.83-10.61l2.76,.87c-.09,.28-.36,.48-.86,.46-.45,1.21-1,2.36-1.56,3.44h4.4v-5.52l2.76,.3c-.07,.32-.25,.55-.82,.64v4.58h4.69l1.27-1.56s1.38,1.03,2.33,1.88c-.07,.25-.32,.37-.63,.37h-7.66v5.8h3.87l1.27-1.6s1.47,1.12,2.36,1.9c-.07,.25-.29,.37-.59,.37h-6.91v6.74h5.89l1.29-1.65Z"/><path class="cls-1" d="M108.71,171.46c-.09,.3-.36,.48-.88,.48-.52,1.72-1.13,3.37-1.83,4.9l1.02,.39c-.09,.18-.29,.34-.7,.39v13.61c-.02,.14-.75,.53-1.4,.53h-.29v-12.33c-.7,1.17-1.45,2.2-2.24,3.09l-.32-.21c1.61-2.89,3.17-7.36,4.03-11.67l2.63,.8Zm.91,17.05c0,.18-.7,.57-1.34,.57h-.32v-14.97l2.4,.25c-.07,.27-.25,.5-.75,.57v13.57Zm-.36,2.87c4.65-1.17,8.52-2.87,11.6-6.72l2.27,1.35c-.16,.23-.38,.3-.93,.16-3.63,3.48-7.73,4.88-12.85,5.62l-.09-.41Zm10.97-17.1c-.7,1.44-1.65,2.66-2.88,3.71,1.59,.85,3.54,1.42,5.98,1.74l-.04,.25c-.68,.23-1.13,.71-1.25,1.6-2.51-.6-4.35-1.51-5.78-2.73-1.72,1.19-3.78,2.11-6.16,2.77l-.16-.32c2.17-.87,4.01-1.97,5.44-3.3-.79-.87-1.45-1.86-2.02-2.96-.95,1.24-2.02,2.27-3.13,3l-.32-.25c1.47-1.65,2.92-4.35,3.78-7.2l2.42,.94c-.09,.25-.36,.44-.86,.39-.27,.57-.59,1.15-.91,1.67h5.48l1.13-1.49s1.29,1.03,2.08,1.79c-.05,.25-.27,.37-.59,.37h-2.24Zm-1.72,7.29c-.16,.21-.34,.28-.79,.16-1.9,1.31-4.4,2.34-6.8,2.98l-.25-.44c2.11-.92,4.26-2.34,5.87-3.99l1.97,1.28Zm-7.84,6.19c2.99-1.24,5.89-2.98,8.13-5.36l2.02,1.31c-.18,.23-.36,.27-.86,.16-2.56,1.99-5.78,3.42-9.11,4.29l-.18-.39Zm3.01-13.13c.66,1.01,1.45,1.88,2.45,2.61,.82-.89,1.45-1.88,1.9-2.96h-4.1l-.25,.34Z"/><path class="cls-1" d="M143.42,173.27c-.2,.18-.5,.23-1.02,.25-1.79,1.26-4.4,2.91-6.82,4.06l.14,.02c-.07,.32-.27,.53-.77,.6v10.96c0,1.47-.36,2.34-3.17,2.59-.09-.6-.25-1.01-.7-1.33-.45-.32-1.2-.55-2.63-.73v-.34s3.35,.23,3.99,.23c.45,0,.61-.16,.61-.53v-11.71l1.81,.18c1.75-1.26,3.69-3,4.92-4.26h-14.46l-.2-.64h15l1.27-1.19,2.04,1.86Z"/><path class="cls-1" d="M165.09,178.82s1.2,1.05,1.9,1.79c-.07,.25-.27,.37-.59,.37h-2.79v10.2c-.02,.14-.59,.57-1.5,.57h-.32v-10.77h-3.13c-.11,4.17-1.02,8.23-6.1,10.84l-.27-.25c3.78-2.89,4.53-6.51,4.62-10.59h-2.49l-.18-.67h2.67v-6.97h-2.04l-.07-.23c-.09,.07-.25,.11-.43,.11h-3.69c-.32,1.97-.82,3.85-1.5,5.59l.43,.18h2.08l.88-.96,1.9,1.47c-.14,.16-.48,.32-.88,.41v8.71c-.02,.12-.84,.48-1.41,.48h-.29v-1.51h-2.58v2.04c0,.16-.54,.57-1.36,.57h-.29v-8.23c-.57,.96-1.2,1.86-1.93,2.71l-.34-.25c1.81-3.09,2.83-7.17,3.38-11.21h-2.85l-.18-.64h6l1.11-1.47s1.13,.89,1.93,1.58h8.59l1.13-1.51s1.31,1.05,2.06,1.79c-.05,.25-.27,.37-.57,.37h-2.4v6.97h.43l1.04-1.49Zm-15.75,.83v7.29h2.58v-7.29h-2.58Zm12.46,.66v-6.97h-3.13v6.97h3.13Z"/><path class="cls-1" d="M188.96,189.36c.5,.18,.61,.41,.61,.78,0,.8-.77,1.19-3.65,1.19h-1.84c-1.74,0-2.02-.41-2.02-1.72v-6.17h-4.06c-.77,3.83-3.06,6.78-9.34,8.32l-.18-.32c5.03-1.76,6.96-4.58,7.54-8h-6.25l-.2-.69h6.55c.14-1.12,.16-2.29,.09-3.51l2.95,.23c-.04,.39-.34,.57-.82,.62-.02,.92-.09,1.81-.23,2.66h3.69l.97-1.03,1.88,1.6c-.11,.14-.34,.25-.77,.32v5.52c0,.3,.09,.37,.63,.37h2.9c.2-.02,.32-.07,.41-.28,.18-.34,.45-1.51,.75-2.75h.29l.07,2.84Zm-16.84-15.1c-.04,1.51-.72,2.52-1.43,2.98-.66,.41-1.59,.37-1.88-.3-.2-.6,.16-1.12,.72-1.47,.97-.46,1.93-1.79,1.9-3.3h.39c.16,.5,.23,.99,.27,1.42h5.8v-2.93l2.65,.25c-.05,.32-.25,.53-.79,.62v2.06h6.12l1.11-1.12,1.97,1.9c-.16,.18-.41,.23-.86,.25-.75,.66-2.06,1.58-3.06,2.11l-.25-.16c.34-.6,.79-1.56,1.09-2.32h-3.9v3.69c0,.27,.07,.37,.72,.37h1.88c.79,0,1.47,0,1.77-.05,.23,0,.36-.05,.45-.18,.16-.23,.41-.85,.66-1.63h.25l.07,1.65c.57,.18,.7,.41,.7,.73,0,.78-.7,1.08-4.01,1.05h-2.2c-1.79,0-2.13-.34-2.13-1.6v-4.03h-2.81c-.82,3.85-3.35,5.91-8.07,6.99l-.11-.34c3.83-1.42,5.55-3.46,6.14-6.65h-3.17Z"/><path class="cls-1" d="M210.9,189.34c.57,.21,.7,.44,.7,.8,0,.8-.77,1.1-4.15,1.1h-2.15c-1.83,0-2.24-.41-2.24-1.76v-4.93h-3.33c-.36,2.68-1.9,5.5-7.79,7.2l-.18-.32c4.42-1.95,5.8-4.38,6.14-6.88h-5.48l-.2-.64h5.76c0-.28,.02-.57,.02-.85v-3.07h-2.38l-.14-.5c-1.25,.85-2.65,1.58-4.24,2.15l-.23-.32c3.67-1.93,6.5-5.09,7.86-8.46h-5.19l-.2-.64h5.42l1.13-1.1,1.88,1.7c-.18,.21-.43,.25-.95,.3-1.11,2.36-2.88,4.54-5.3,6.23h8.88l1.04-1.4s1.2,.99,1.9,1.67c-.04,.25-.27,.37-.57,.37h-2.04v3.92h2.63l1.18-1.54s1.31,1.08,2.13,1.81c-.07,.25-.29,.37-.61,.37h-5.32v4.47c0,.39,.07,.53,.84,.53h1.86c.84,0,1.47-.02,1.77-.02,.23-.02,.34-.09,.48-.28,.18-.34,.48-1.51,.75-2.7h.27l.07,2.8Zm-17.97-15.33c5.03,.78,3.6,4.33,1.86,3.14-.2-1.05-1.16-2.27-2.06-2.96l.2-.18Zm10.13,9.9v-3.92h-3.24v3.05c0,.3,0,.57-.02,.87h3.26Zm8.79-9.19c-.16,.21-.34,.3-.84,.18-.86,.6-2.31,1.35-3.65,1.92,1.5,1.08,3.2,1.9,4.92,2.5l-.04,.25c-.77,.09-1.38,.64-1.68,1.51-4.03-1.99-7.09-5.32-8.47-10.27l.36-.23c.48,1.35,1.2,2.54,2.08,3.62,.97-.99,2.06-2.29,2.61-3.16l2.15,1.28c-.16,.23-.34,.32-.84,.21-.86,.62-2.24,1.47-3.54,2.13,.59,.64,1.25,1.24,1.95,1.79,1.07-.96,2.24-2.25,2.83-3.09l2.15,1.35Z"/><path class="cls-1" d="M233.86,182.58c-.16,.23-.36,.32-.86,.18-1.16,.85-3.04,1.88-4.85,2.61,1.83,2.11,4.33,3.35,7.16,3.96l-.02,.3c-.91,.37-1.5,1.01-1.65,1.9-4.35-1.65-7.32-5.13-8.57-11.05h-.23c-.82,1.03-1.81,1.97-2.95,2.84v5.16c1.59-.34,3.35-.76,5.14-1.17l.07,.34c-1.99,.89-4.85,2.08-8.86,3.58-.09,.3-.29,.48-.54,.55l-1.16-2.22c.79-.12,2.04-.37,3.56-.69v-4.33c-1.75,1.05-3.72,1.92-5.8,2.61l-.2-.37c3.26-1.54,6.23-3.92,8.09-6.3h-7.59l-.16-.67h9.29v-2.59h-6.87l-.16-.66h7.02v-2.54h-7.79l-.18-.67h7.98v-2.7l2.67,.25c-.04,.32-.25,.55-.82,.64v1.81h5.1l1.18-1.51s1.29,1.05,2.08,1.81c-.07,.25-.29,.37-.61,.37h-7.75v2.54h4.44l1.09-1.47s1.25,1.03,1.99,1.76c-.07,.25-.29,.37-.61,.37h-6.91v2.59h6.1l1.16-1.51s1.31,1.08,2.11,1.81c-.07,.25-.27,.37-.61,.37h-8.75c.5,1.79,1.27,3.25,2.22,4.47,1.41-1.19,2.9-2.8,3.69-3.9l2.36,1.51Z"/><path class="cls-1" d="M249.75,171.32c-.09,.28-.38,.41-1,.46,2.02,2.7,5.96,5,9.63,6.19l-.05,.34c-.86,.23-1.47,1.03-1.65,1.76-3.58-1.7-6.82-4.74-8.32-8.02-2.06,3.21-6.62,6.67-10.99,8.41l-.18-.32c3.88-2.11,8.23-6.49,9.34-9.6l3.22,.78Zm5.21,9.76s1.43,1.08,2.33,1.88c-.07,.25-.32,.37-.63,.37h-9.47c-1.02,1.88-2.4,4.1-3.62,5.68,2.61-.14,5.85-.34,9.29-.57-.86-1.24-1.9-2.43-2.85-3.32l.25-.18c7.75,3.12,6.44,8.14,4.17,6.53-.25-.8-.68-1.67-1.25-2.52-2.99,.6-7,1.28-12.55,2.13-.14,.28-.39,.44-.61,.48l-1.11-2.34c.91-.02,2.18-.07,3.72-.16,.77-1.65,1.63-3.99,2.13-5.73h-6.16l-.2-.67h15.3l1.29-1.58Zm-3.85-4.03s1.36,1.03,2.22,1.81c-.05,.25-.29,.37-.61,.37h-10.4l-.16-.67h7.73l1.22-1.51Z"/></g></g></g></g></svg>