<?xml version="1.0" encoding="UTF-8"?><svg id="_レイヤー_2" xmlns="http://www.w3.org/2000/svg" viewBox="0 0 450.32 92.96"><defs><style>.cls-1{fill:#fff;}</style></defs><g id="_レイヤー_1-2"><g><path class="cls-1" d="M2.07,42.19H10.51V3.93H2.07V1.9H27.64V3.93h-8.44V42.19h8.44v2.03H2.07v-2.03Z"/><path class="cls-1" d="M28.97,42.32c4.82-.06,5.9-.76,8.76-5.65L58.29,0l22.14,42.32h5.9v1.9h-22.4v-1.9h7.17l-6.47-13.01h-20.56l-4.38,7.87-.06,.25q-.7,1.59-.7,2.09c0,1.02,.63,1.97,1.71,2.47,.63,.25,1.01,.32,2.79,.32h3.55v1.9H28.97v-1.9Zm34.58-15.04l-8.82-17.26-9.45,17.26h18.27Z"/><path class="cls-1" d="M87.6,42.19c7.23,.13,8.25-.7,8.5-6.92V4.06h-7.99V1.97l16.75-.06,17.77,32.87L139.63,1.9h16.24V3.93h-7.99V42.19h7.93v2.03h-24.49v-2.03h8.06V6.92l-19.41,38.13h-1.27L98.32,7.61v27.66c0,2.28,.38,4.38,1.01,5.2,.83,1.14,2.79,1.78,5.71,1.78,.44,0,.95,0,1.78-.06v2.03h-19.22v-2.03Z"/><path class="cls-1" d="M157.2,42.32c4.82-.06,5.9-.76,8.76-5.65L186.52,0l22.14,42.32h5.9v1.9h-22.4v-1.9h7.17l-6.47-13.01h-20.56l-4.38,7.87-.06,.25q-.7,1.59-.7,2.09c0,1.02,.63,1.97,1.71,2.47,.63,.25,1.01,.32,2.79,.32h3.55v1.9h-18.02v-1.9Zm34.58-15.04l-8.82-17.26-9.45,17.26h18.27Z"/><path class="cls-1" d="M217.29,28.36h1.71c.44,2.67,1.01,4.5,1.97,6.22,3.17,5.65,10.72,9.33,19.22,9.33s13.83-3.49,13.83-8.63c0-2.09-.95-4.19-2.6-5.46-.7-.57-1.4-.95-2.03-1.21-2.98-.89-7.42-1.52-13.01-1.71-7.17-.32-12.75-1.97-15.92-4.82-2.54-2.28-3.81-4.95-3.81-7.99,0-3.74,2.03-7.49,5.46-10.02,2.86-2.16,7.61-3.36,13.13-3.36,5.9,0,10.28,1.14,16.31,4.31l3.81-3.11h1.52v15.86h-1.65c-1.59-9.83-8.69-15.1-20.18-15.1-8.06,0-13.2,2.92-13.2,7.55,0,1.4,.57,2.79,1.46,3.81,2.79,3.04,6.28,4.12,15.1,4.5,7.87,.38,13.45,2.03,16.56,4.88,2.67,2.54,4.06,5.58,4.06,8.88,0,3.81-1.9,7.36-5.27,9.83-3.05,2.22-8.31,3.49-14.28,3.49s-9.39-.82-16.62-4.12l-3.87,2.92-1.71-.19v-15.86Z"/><path class="cls-1" d="M306.44,28.36c0,5.46-1.02,9.9-2.86,12.18-2.03,2.54-5.33,3.93-9.33,3.93-3.3,0-5.96-.76-10.53-2.98-4-1.9-5.71-2.47-7.87-2.47-2.41,0-4.76,.95-6.03,2.54-.57,.63-.95,1.27-1.59,2.67h-1.52c-.06-.7-.13-1.27-.13-1.52,0-3.05,1.33-6.09,3.81-8.95,2.35-2.67,8.31-6.28,15.86-9.64,4.19-1.9,6.41-3.3,7.93-5.14,1.71-2.03,2.54-4.19,2.54-6.47,0-5.96-5.39-10.28-12.82-10.28-3.87,0-7.74,1.01-10.28,2.6-1.02,.7-1.84,1.52-2.92,2.86,.63-.06,1.14-.06,1.59-.06,2.79,0,4.95,2.16,4.95,4.95s-2.16,4.95-5.01,4.95-4.95-2.16-4.95-5.27c0-6.85,7.87-11.8,18.72-11.8,6.15,0,11.99,1.65,15.1,4.31,2.47,2.09,3.74,4.82,3.74,8.06,0,3.81-1.59,6.66-5.08,8.88-1.84,1.21-4.57,2.22-10.02,3.87-14.59,4.38-20.43,8.57-21.25,15.48,2.22-3.55,6.98-5.84,12.05-5.84,3.05,0,3.49,.06,14.21,2.47,1.46,.32,2.98,.51,4.06,.51,1.59,0,3.04-.57,3.87-1.52,1.27-1.4,2.16-4.5,2.16-7.49v-.82h1.59Z"/><path class="cls-1" d="M348.25,6.79c3.68,3.93,5.9,10.02,5.9,16.24,0,7.11-2.86,13.83-7.49,17.64-3.49,2.85-7.87,4.31-13.2,4.31-12.05,0-20.3-8.88-20.3-21.95s9.14-22.02,21.13-22.02c5.65,0,10.28,1.9,13.96,5.77Zm-23.73,.7c-2.09,2.98-3.43,8.31-3.43,13.96,0,7.87,1.97,14.91,5.14,18.53,2.16,2.47,4.57,3.55,7.8,3.55,3.43,0,6.03-1.27,7.99-4,2.79-3.62,4.25-9.45,4.25-16.5s-1.46-13.01-4.19-16.37c-2.22-2.67-5.27-4.19-8.5-4.19-3.55,0-6.73,1.71-9.07,5.01Z"/><path class="cls-1" d="M401.99,28.36c0,5.46-1.02,9.9-2.86,12.18-2.03,2.54-5.33,3.93-9.33,3.93-3.3,0-5.96-.76-10.53-2.98-4-1.9-5.71-2.47-7.87-2.47-2.41,0-4.76,.95-6.03,2.54-.57,.63-.95,1.27-1.59,2.67h-1.52c-.06-.7-.13-1.27-.13-1.52,0-3.05,1.33-6.09,3.81-8.95,2.35-2.67,8.31-6.28,15.86-9.64,4.19-1.9,6.41-3.3,7.93-5.14,1.71-2.03,2.54-4.19,2.54-6.47,0-5.96-5.39-10.28-12.82-10.28-3.87,0-7.74,1.01-10.28,2.6-1.02,.7-1.84,1.52-2.92,2.86,.63-.06,1.14-.06,1.59-.06,2.79,0,4.95,2.16,4.95,4.95s-2.16,4.95-5.01,4.95-4.95-2.16-4.95-5.27c0-6.85,7.87-11.8,18.72-11.8,6.15,0,11.99,1.65,15.1,4.31,2.47,2.09,3.74,4.82,3.74,8.06,0,3.81-1.59,6.66-5.08,8.88-1.84,1.21-4.57,2.22-10.02,3.87-14.59,4.38-20.43,8.57-21.25,15.48,2.22-3.55,6.98-5.84,12.06-5.84,3.04,0,3.49,.06,14.21,2.47,1.46,.32,2.98,.51,4.06,.51,1.59,0,3.05-.57,3.87-1.52,1.27-1.4,2.16-4.5,2.16-7.49v-.82h1.59Z"/><path class="cls-1" d="M438.98,1.52V30.52h8.95v1.9h-8.95v9.83h8.82v1.97h-25.76l-.06-1.97h9.39v-9.83h-25.95v-1.71L436.44,1.52h2.54Zm-7.61,29V8.44l-23.16,22.08h23.16Z"/></g><g><path class="cls-1" d="M1.81,60.16c.58,2.1,.24,3.73-.26,4.45-.36,.51-1.08,.73-1.42,.33-.26-.37-.1-.82,.28-1.18,.52-.65,1.1-2.24,1.04-3.63l.36,.02Zm3.42-3.32c-.06,.28-.22,.47-.72,.55v16.78c0,.2-.64,.53-1.22,.53h-.3v-18.11l2.24,.25Zm-.24,2.71c3.18,1.75,1.78,4.1,.68,3.02-.02-.94-.48-2.16-.94-2.9l.26-.12Zm12.13,2.47s1.1,.84,1.78,1.47c-.06,.22-.26,.31-.54,.31H6.19l-.16-.59h5.37v-1.75h-3.82l-.16-.57h3.98v-1.63H6.69l-.16-.57h4.87v-2.02l2.22,.22c-.04,.25-.2,.43-.66,.51v1.29h2.86l.96-1.2s1.12,.86,1.78,1.45c-.06,.22-.22,.31-.5,.31h-5.1v1.63h2.38l.92-1.16s1.06,.8,1.72,1.41c-.06,.22-.26,.31-.54,.31h-4.48v1.75h3.2l.96-1.2Zm-1.28,2.32l1.86,1.37c-.14,.16-.44,.31-.86,.39v6.55c0,1.14-.24,1.83-2.14,2-.04-.49-.12-.86-.34-1.1-.26-.25-.64-.43-1.42-.55v-.29s1.58,.12,1.94,.12c.32,0,.4-.12,.4-.39v-1.96h-5.89v3.65c0,.16-.64,.53-1.3,.53h-.26v-10.14l1.68,.73h5.57l.76-.9Zm-6.45,1.49v1.73h5.89v-1.73h-5.89Zm5.89,4.08v-1.79h-5.89v1.79h5.89Z"/><path class="cls-1" d="M28.39,61.02s1.08,.9,1.74,1.51c-.04,.22-.24,.31-.52,.31h-8.91l-.16-.55h3.78v-2.47h-3.12l-.16-.57h3.28v-2.69l2.18,.22c-.04,.24-.2,.41-.66,.49v1.98h1.18l.92-1.2s1.04,.84,1.68,1.45c-.04,.22-.26,.31-.54,.31h-3.24v2.47h1.56l.98-1.28Zm-.04,4.14s1.08,.86,1.74,1.47c-.06,.22-.26,.31-.54,.31h-3.7v2.71h1.38l.96-1.26s1.06,.9,1.72,1.53c-.06,.2-.26,.29-.54,.29h-3.52v4.04c0,.1-.5,.43-1.28,.43h-.24v-4.47h-3.34l-.14-.57h3.48v-2.71h-3.62l-.16-.59h5.31c.3-1.02,.64-2.41,.84-3.45l2.16,.67c-.08,.22-.32,.39-.76,.37-.44,.67-1.08,1.63-1.76,2.41h1.08l.94-1.2Zm-6.11-2.12c3.32,1.71,1.72,4.16,.52,2.98,.02-.96-.38-2.12-.76-2.9l.24-.08Zm16.78,2.04c-.14,.18-.32,.25-.74,.29-.4,1.84-1.06,3.71-2.12,5.38,.94,1,2.06,1.8,3.3,2.39l-.04,.2c-.66,.08-1.2,.53-1.48,1.24-1.04-.73-1.92-1.59-2.64-2.63-.84,1.02-1.88,1.96-3.18,2.73l-.2-.28c1.16-.94,2.06-2.12,2.78-3.41-.88-1.57-1.46-3.49-1.82-5.81h-1v8.91c0,.2-.54,.59-1.24,.59h-.28v-17.48l1.62,.75h4.32l.74-.86,1.82,1.33c-.1,.12-.42,.29-.84,.35v2.77c0,1.06-.26,1.75-2.32,1.92-.06-.45-.16-.8-.44-1.04-.32-.2-.8-.41-1.74-.51v-.31s2.04,.16,2.54,.16c.34,0,.44-.12,.44-.39v-2.87h-4.62v6.12h4.66l.9-.88,1.58,1.35Zm-5.75,.1c.42,1.77,1.12,3.3,2.06,4.55,.62-1.45,1.06-3,1.32-4.55h-3.38Z"/><path class="cls-1" d="M45.86,64.34c4.26,1.57,3.06,4.22,1.7,3.24-.26-.88-1-1.92-1.7-2.73v9.36c0,.12-.54,.49-1.3,.49h-.26v-8.24c-.96,1.71-2.2,3.22-3.68,4.49l-.28-.26c1.7-2.08,2.94-4.91,3.66-7.63h-3.06l-.16-.57h3.52v-3.32c-1.12,.22-2.32,.41-3.44,.51l-.1-.29c2.26-.65,5-1.82,6.39-2.73l1.88,1.61c-.16,.18-.54,.18-1.06,.02-.6,.18-1.32,.37-2.1,.57v3.63h.82l.92-1.22s1.04,.86,1.64,1.47c-.04,.22-.24,.31-.5,.31h-2.88v1.28Zm11.97,2s1.08,.75,1.76,1.28c0,.22-.2,.37-.44,.41l-2.82,.53v5.51c0,.2-.66,.57-1.26,.57h-.3v-5.79l-6.77,1.28-.26-.51,7.03-1.33v-11.28l2.28,.24c-.06,.27-.22,.49-.72,.57v10.18l.7-.14,.8-1.51Zm-8.41-2.98c5.04,.86,3.96,4.1,2.3,3.1-.34-1-1.5-2.24-2.48-2.92l.18-.18Zm.46-4.69c4.94,.98,3.84,4.2,2.22,3.18-.34-1.04-1.46-2.3-2.42-3.02l.2-.16Z"/><path class="cls-1" d="M79.25,61.49c-.16,.18-.38,.22-.78,.24-.7,.67-2,1.59-2.94,2.12l-.22-.16c.36-.61,.82-1.55,1.12-2.3h-12.97c.08,1.37-.48,2.32-1.08,2.73-.58,.39-1.34,.39-1.56-.12-.24-.49,.08-.94,.52-1.22,.84-.49,1.56-1.84,1.4-3.3l.3-.02c.18,.47,.3,.92,.36,1.33h8.87c.84-1.22,1.74-2.9,2.28-4.18l2.32,.82c-.08,.24-.32,.37-.78,.33-.76,.92-1.96,2.1-3.12,3.02h3.46l1-1,1.82,1.69Zm-2.16,5.22s1.26,.96,2,1.65c-.06,.22-.26,.31-.52,.31h-7.77v3.83c0,1.26-.3,2-2.7,2.22-.08-.51-.22-.88-.58-1.16-.4-.25-.98-.47-2.16-.63v-.29s2.74,.2,3.26,.2c.38,0,.5-.12,.5-.43v-3.73h-8.17l-.16-.57h8.33v-2.06l1.26,.12c.72-.59,1.6-1.37,2.22-2.04h-8.29l-.18-.57h8.73l1-.94,1.68,1.59c-.16,.14-.4,.16-.82,.2-.86,.59-2.26,1.3-3.5,1.84l.24,.02c-.04,.28-.24,.43-.66,.49v1.35h5.19l1.1-1.39Zm-13.17-9.83c4.52,1.43,3.12,4.59,1.58,3.43-.16-1.1-1.02-2.45-1.78-3.3l.2-.14Zm4.5-.31c4.32,1.73,2.62,4.87,1.14,3.55-.02-1.18-.7-2.53-1.36-3.41l.22-.14Z"/><path class="cls-1" d="M85.76,59.72h-5.35l-.12-.57h5.47v-2.55l2.28,.22c-.02,.25-.2,.45-.7,.53v1.8h4.14v-2.55l2.32,.22c-.04,.28-.22,.45-.72,.53v1.8h2.68l1.04-1.33s1.2,.94,1.86,1.59c-.04,.22-.24,.31-.52,.31h-5.07v1.83c0,.18-.6,.43-1.32,.45h-.28v-2.28h-4.14v1.92c0,.2-.7,.43-1.32,.43h-.26v-2.35Zm10.93,5.42s1.22,.96,1.94,1.61c-.04,.22-.24,.31-.52,.31h-9.01c-.94,1.73-2.2,3.73-3.34,5.1,2.46-.1,5.48-.26,8.65-.43-.88-1.12-1.98-2.16-2.96-2.92l.2-.18c7.37,2.61,6.37,7.08,4.34,5.77-.24-.71-.68-1.49-1.26-2.26-2.86,.53-6.79,1.1-12.25,1.83-.12,.22-.34,.37-.56,.41l-.92-2.06c.92,0,2.3-.06,3.98-.12,.7-1.45,1.5-3.57,1.96-5.14h-6.29l-.14-.57h15.1l1.08-1.35Zm-2.96-2.14l1.02-1.26s1.16,.88,1.88,1.53c-.06,.22-.26,.31-.52,.31h-13.39l-.14-.59h11.15Z"/><path class="cls-1" d="M106.01,62.02c-.12,.2-.3,.29-.78,.22-.38,.63-.86,1.35-1.42,2.1l.84,.29c-.06,.18-.24,.31-.6,.37v9.22c-.02,.12-.66,.45-1.26,.45h-.26v-8.77c-.68,.76-1.44,1.51-2.26,2.14l-.22-.22c1.62-1.96,3.12-4.91,3.82-6.89l2.14,1.08Zm-.18-4.26c-.1,.22-.3,.29-.76,.22-1,1.35-2.72,3.16-4.62,4.36l-.2-.22c1.42-1.53,2.84-3.85,3.5-5.44l2.08,1.08Zm-.88,13.5c.86-2.1,1.42-5,1.58-7.85l2.1,.33c-.06,.25-.24,.45-.68,.49-.48,2.83-1.34,5.46-2.68,7.2l-.32-.18Zm5.26-9.89v12.64c0,.2-.66,.57-1.24,.57h-.28v-13.21h-2.96l-.16-.57h3.12v-3.96l2.22,.24c-.06,.28-.22,.47-.7,.55v3.18h1.22l.86-.96c-.08-.04-.14-.08-.22-.14-.08-.75-.6-1.67-1.06-2.22l.22-.14c2.74,.92,2.28,2.61,1.38,2.57,.34,.25,1,.73,1.46,1.14-.06,.22-.24,.31-.52,.31h-3.34Zm.88,1.88c3.88,4.24,1.9,7.77,.92,6.24-.02-1.45-.26-4.22-1.22-6.1l.3-.14Zm6.03-1.61s1.16,.9,1.84,1.55c-.06,.22-.24,.31-.52,.31h-1.58v9.11c0,1.12-.26,1.92-2.18,2.1-.02-.45-.12-.84-.34-1.08-.26-.24-.7-.43-1.56-.53v-.29s1.76,.12,2.12,.12c.34,0,.42-.1,.42-.37v-9.05h-2.36l-.16-.59h3.32l1-1.28Zm-3.56-2.57l-.16-.57h2.5l.96-1.24s1.12,.88,1.78,1.49c-.06,.22-.22,.31-.5,.31h-4.58Z"/><path class="cls-1" d="M130.67,62.98c.7,3.69,2.88,7.55,8.73,10.09l-.02,.24c-.86,.12-1.42,.51-1.62,1.41-5.29-2.92-6.87-7.63-7.45-11.56-.58,4.59-2.46,8.63-9.41,11.54l-.24-.31c5.79-3.14,7.45-6.99,7.95-11.4h-7.59l-.14-.57h7.79c.16-1.83,.14-3.77,.14-5.77l2.48,.26c-.06,.29-.22,.49-.68,.55-.04,1.71-.06,3.36-.22,4.96h5.41l1.18-1.45s1.38,1.02,2.18,1.71c-.04,.22-.26,.31-.52,.31h-7.97Z"/><path class="cls-1" d="M159.32,61.49c-.16,.18-.38,.22-.78,.24-.7,.67-2,1.59-2.94,2.12l-.22-.16c.36-.61,.82-1.55,1.12-2.3h-12.97c.08,1.37-.48,2.32-1.08,2.73-.58,.39-1.34,.39-1.56-.12-.24-.49,.08-.94,.52-1.22,.84-.49,1.56-1.84,1.4-3.3l.3-.02c.18,.47,.3,.92,.36,1.33h8.87c.84-1.22,1.74-2.9,2.28-4.18l2.32,.82c-.08,.24-.32,.37-.78,.33-.76,.92-1.96,2.1-3.12,3.02h3.46l1-1,1.82,1.69Zm-2.16,5.22s1.26,.96,2,1.65c-.06,.22-.26,.31-.52,.31h-7.77v3.83c0,1.26-.3,2-2.7,2.22-.08-.51-.22-.88-.58-1.16-.4-.25-.98-.47-2.16-.63v-.29s2.74,.2,3.26,.2c.38,0,.5-.12,.5-.43v-3.73h-8.17l-.16-.57h8.33v-2.06l1.26,.12c.72-.59,1.6-1.37,2.22-2.04h-8.29l-.18-.57h8.73l1-.94,1.68,1.59c-.16,.14-.4,.16-.82,.2-.86,.59-2.26,1.3-3.5,1.84l.24,.02c-.04,.28-.24,.43-.66,.49v1.35h5.19l1.1-1.39Zm-13.17-9.83c4.52,1.43,3.12,4.59,1.58,3.43-.16-1.1-1.02-2.45-1.78-3.3l.2-.14Zm4.5-.31c4.32,1.73,2.62,4.87,1.14,3.55-.02-1.18-.7-2.53-1.36-3.41l.22-.14Z"/><path class="cls-1" d="M168.16,58.61c-.14,.18-.44,.24-.88,.25-.6,1.12-1.72,3.22-2.54,4.34,1.82,1.37,2.56,3.02,2.56,4.47,0,1.81-.64,2.69-2.52,2.77,0-.43-.06-.98-.22-1.16-.14-.18-.48-.29-.9-.35v-.29h1.2c.22,0,.34-.02,.48-.12,.26-.16,.42-.53,.42-1.2,0-1.31-.38-2.73-1.52-4.08,.44-1.16,1.02-3.32,1.38-4.79h-2.18v15.76c0,.12-.5,.53-1.26,.53h-.26v-17.56l1.76,.71h1.84l.94-.88,1.7,1.61Zm11.13,14.03c.42,.2,.5,.37,.5,.67,0,.63-.56,.92-2.88,.92h-1.4c-1.38,0-1.64-.33-1.64-1.37v-6.59h-1.92c-.28,4.49-1.7,6.99-6.63,8.42l-.1-.29c4-1.84,4.93-4.2,5.07-8.12h-2.74l-.14-.55h9.43l.98-1.28s1.14,.88,1.8,1.53c-.06,.22-.26,.29-.52,.29h-3.7v6.2c0,.25,.06,.33,.52,.33h2.12c.18-.02,.24-.06,.32-.24,.14-.31,.4-1.43,.62-2.55h.26l.06,2.63Zm.54-12.7c-.16,.18-.38,.2-.74,.22-.52,.43-1.44,1.08-2.04,1.43l-.24-.14c.14-.41,.34-1.04,.48-1.59h-8.09c.02,.94-.28,1.63-.68,1.98-.44,.37-1.18,.39-1.44-.12-.22-.47,.06-.92,.48-1.22,.54-.39,1.04-1.45,.96-2.39h.34c.14,.41,.24,.8,.3,1.18h3v-2.67l2.28,.22c-.04,.28-.24,.47-.72,.53v1.92h3.48l.94-.92,1.68,1.57Zm-3.48,1.47s1.1,.84,1.76,1.43c-.06,.22-.26,.31-.54,.31h-9.07l-.16-.57h7.07l.94-1.18Z"/><path class="cls-1" d="M191.12,62.98c.7,3.69,2.88,7.55,8.73,10.09l-.02,.24c-.86,.12-1.42,.51-1.62,1.41-5.29-2.92-6.87-7.63-7.45-11.56-.58,4.59-2.46,8.63-9.41,11.54l-.24-.31c5.79-3.14,7.45-6.99,7.95-11.4h-7.59l-.14-.57h7.79c.16-1.83,.14-3.77,.14-5.77l2.48,.26c-.06,.29-.22,.49-.68,.55-.04,1.71-.06,3.36-.22,4.96h5.41l1.18-1.45s1.38,1.02,2.18,1.71c-.04,.22-.26,.31-.52,.31h-7.97Z"/><path class="cls-1" d="M219.76,61.49c-.16,.18-.38,.22-.78,.24-.7,.67-2,1.59-2.94,2.12l-.22-.16c.36-.61,.82-1.55,1.12-2.3h-12.97c.08,1.37-.48,2.32-1.08,2.73-.58,.39-1.34,.39-1.56-.12-.24-.49,.08-.94,.52-1.22,.84-.49,1.56-1.84,1.4-3.3l.3-.02c.18,.47,.3,.92,.36,1.33h8.87c.84-1.22,1.74-2.9,2.28-4.18l2.32,.82c-.08,.24-.32,.37-.78,.33-.76,.92-1.96,2.1-3.12,3.02h3.46l1-1,1.82,1.69Zm-2.16,5.22s1.26,.96,2,1.65c-.06,.22-.26,.31-.52,.31h-7.77v3.83c0,1.26-.3,2-2.7,2.22-.08-.51-.22-.88-.58-1.16-.4-.25-.98-.47-2.16-.63v-.29s2.74,.2,3.26,.2c.38,0,.5-.12,.5-.43v-3.73h-8.17l-.16-.57h8.33v-2.06l1.26,.12c.72-.59,1.6-1.37,2.22-2.04h-8.29l-.18-.57h8.73l1-.94,1.68,1.59c-.16,.14-.4,.16-.82,.2-.86,.59-2.26,1.3-3.5,1.84l.24,.02c-.04,.28-.24,.43-.66,.49v1.35h5.19l1.1-1.39Zm-13.17-9.83c4.52,1.43,3.12,4.59,1.58,3.43-.16-1.1-1.02-2.45-1.78-3.3l.2-.14Zm4.5-.31c4.32,1.73,2.62,4.87,1.14,3.55-.02-1.18-.7-2.53-1.36-3.41l.22-.14Z"/><path class="cls-1" d="M229.72,59.45c-.97,1.53-2.15,2.79-3.4,3.65l-.27-.22c1.28-1.45,2.54-3.81,3.3-6.32l2.1,.8c-.1,.22-.35,.37-.76,.33-.19,.39-.39,.79-.6,1.16h2.95l.87-1.1s.95,.78,1.55,1.37c-.04,.22-.23,.31-.5,.31h-3.82c2.48,1.33,1.14,3.43,.06,2.41,.02-.82-.41-1.77-.85-2.41h-.62Zm12.31,7.97l1.61,1.31c-.12,.14-.37,.24-.76,.27-.21,2.51-.7,3.98-1.49,4.55-.5,.35-1.18,.51-1.92,.51,0-.41-.08-.82-.31-1.04-.25-.24-.83-.41-1.46-.53l.02-.31c.6,.06,1.73,.14,2.1,.14,.29,0,.45-.02,.6-.16,.39-.28,.74-1.47,.93-3.36h-5.36v5.44c0,.1-.49,.45-1.28,.45h-.25v-4.65c-1.96,2-4.75,3.57-8.02,4.59l-.17-.29c2.91-1.31,5.45-3.38,7.03-5.53h-3.8c-.12,.49-.25,.96-.37,1.35-.39,.18-.8,.22-1.59-.04,.52-1.69,1.15-4.12,1.46-5.51l1.67,.79h3.8v-2.35h-6.35l-.17-.57h12.31l.78-.82,1.67,1.26c-.12,.14-.39,.31-.72,.37v3.32c-.02,.14-.78,.47-1.3,.47h-.25v-1.08h-4.42v2.26h5.22l.82-.82Zm-7.57,.82v-2.26h-4.25c-.16,.63-.35,1.45-.56,2.26h4.81Zm8-10.58s1.09,.84,1.75,1.47c-.04,.22-.25,.31-.5,.31h-4.72c2.29,1.26,1.09,3.2-.02,2.28-.06-.77-.5-1.65-.99-2.28h-.97c-.78,1.06-1.65,1.96-2.56,2.61l-.25-.2c.93-1.26,1.92-3.26,2.48-5.3l2.13,.79c-.1,.24-.33,.39-.74,.35-.21,.39-.43,.79-.68,1.16h4.13l.93-1.2Zm-6.46,7.73h4.42v-2.35h-4.42v2.35Z"/><path class="cls-1" d="M258.32,68.21c0,2.09-.32,3.79-.89,4.66-.63,.97-1.67,1.5-2.91,1.5-1.03,0-1.86-.29-3.29-1.14-1.25-.73-1.78-.95-2.46-.95-.75,0-1.49,.36-1.88,.97-.18,.24-.3,.48-.5,1.02h-.48c-.02-.27-.04-.49-.04-.58,0-1.17,.42-2.33,1.19-3.42,.73-1.02,2.6-2.4,4.96-3.69,1.31-.73,2-1.26,2.48-1.97,.54-.78,.79-1.6,.79-2.47,0-2.28-1.68-3.93-4-3.93-1.21,0-2.42,.39-3.21,1-.32,.27-.57,.58-.91,1.09,.2-.02,.36-.02,.5-.02,.87,0,1.55,.83,1.55,1.89s-.67,1.89-1.57,1.89-1.55-.83-1.55-2.01c0-2.62,2.46-4.51,5.85-4.51,1.92,0,3.75,.63,4.72,1.65,.77,.8,1.17,1.84,1.17,3.08,0,1.46-.5,2.55-1.58,3.4-.58,.46-1.43,.85-3.13,1.48-4.56,1.67-6.38,3.28-6.64,5.92,.69-1.36,2.18-2.23,3.77-2.23,.95,0,1.09,.02,4.44,.95,.46,.12,.93,.19,1.27,.19,.5,0,.95-.22,1.21-.58,.4-.53,.67-1.72,.67-2.86v-.32h.5Z"/><path class="cls-1" d="M272.86,68.21c0,2.09-.32,3.79-.89,4.66-.63,.97-1.67,1.5-2.91,1.5-1.03,0-1.86-.29-3.29-1.14-1.25-.73-1.78-.95-2.46-.95-.75,0-1.49,.36-1.88,.97-.18,.24-.3,.48-.5,1.02h-.48c-.02-.27-.04-.49-.04-.58,0-1.17,.42-2.33,1.19-3.42,.73-1.02,2.6-2.4,4.96-3.69,1.31-.73,2-1.26,2.48-1.97,.54-.78,.79-1.6,.79-2.47,0-2.28-1.68-3.93-4-3.93-1.21,0-2.42,.39-3.21,1-.32,.27-.57,.58-.91,1.09,.2-.02,.36-.02,.5-.02,.87,0,1.55,.83,1.55,1.89s-.67,1.89-1.57,1.89-1.55-.83-1.55-2.01c0-2.62,2.46-4.51,5.85-4.51,1.92,0,3.75,.63,4.72,1.65,.77,.8,1.17,1.84,1.17,3.08,0,1.46-.5,2.55-1.58,3.4-.58,.46-1.43,.85-3.13,1.48-4.56,1.67-6.38,3.28-6.64,5.92,.69-1.36,2.18-2.23,3.77-2.23,.95,0,1.09,.02,4.44,.95,.46,.12,.93,.19,1.27,.19,.5,0,.95-.22,1.21-.58,.4-.53,.67-1.72,.67-2.86v-.32h.5Z"/><path class="cls-1" d="M293.13,58.37c-.14,.14-.43,.31-.81,.39v13.79c0,1.2-.25,1.88-2.21,2.08-.06-.47-.16-.86-.41-1.1-.29-.25-.76-.43-1.61-.57v-.29s1.88,.14,2.29,.14c.35,0,.45-.14,.45-.43v-5.12h-3.47c-.27,2.77-1.13,5.46-3.9,7.38l-.27-.22c1.51-1.59,2.21-3.47,2.54-5.53-.08,.14-.23,.2-.45,.2h-10.11l-.16-.59h2.12v-8.2h-1.61l-.14-.57h1.75v-2.87l2.12,.22c-.06,.26-.21,.43-.66,.51v2.14h3.2v-2.88l2.17,.24c-.06,.28-.23,.45-.7,.53v2.12h.19l.76-1.1s.87,.8,1.34,1.35c-.04,.22-.21,.31-.47,.31h-1.82v8.2h.21l.81-1.18s.89,.82,1.48,1.41c.19-1.31,.23-2.69,.23-4.12v-7.42l1.73,.73h2.91l.74-.92,1.77,1.37Zm-18.11,16.09c1.13-1.06,2.29-2.88,2.97-4.91l2.1,.9c-.1,.2-.35,.35-.76,.29-1.05,1.8-2.52,3.16-4.06,3.94l-.25-.24Zm3.55-14.17v2.2h3.2v-2.2h-3.2Zm0,5.12h3.2v-2.35h-3.2v2.35Zm0,3.08h3.2v-2.51h-3.2v2.51Zm2.52,1.18c4.25,1.26,3.03,4.24,1.59,3.18-.19-1.04-1.07-2.3-1.81-3.02l.21-.16Zm9.72-2.98v-3.92h-3.38v1.82c0,.69-.02,1.39-.06,2.1h3.44Zm-3.38-8.22v3.75h3.38v-3.75h-3.38Z"/><path class="cls-1" d="M310.45,71.85s1.3,.96,2.06,1.67c-.06,.22-.23,.31-.5,.31h-17.25l-.16-.57h8.04v-5.77h-5.69l-.14-.57h5.82v-4.96h-4.09c-1.11,1.88-2.41,3.45-3.82,4.59l-.27-.18c1.65-2.14,3.26-5.57,4.13-9.09l2.37,.75c-.08,.24-.31,.41-.74,.39-.39,1.04-.85,2.02-1.34,2.94h3.76v-4.73l2.37,.26c-.06,.27-.21,.47-.7,.55v3.92h4.02l1.09-1.33s1.18,.88,2,1.61c-.06,.22-.27,.31-.54,.31h-6.56v4.96h3.32l1.09-1.37s1.26,.96,2.02,1.63c-.06,.22-.25,.31-.5,.31h-5.92v5.77h5.05l1.11-1.41Z"/><path class="cls-1" d="M319.14,57.29c-.08,.26-.31,.41-.76,.41-.45,1.47-.97,2.88-1.57,4.2l.87,.33c-.08,.16-.25,.29-.6,.33v11.66c-.02,.12-.64,.45-1.2,.45h-.25v-10.56c-.6,1-1.24,1.88-1.92,2.65l-.27-.18c1.38-2.47,2.72-6.3,3.46-9.99l2.25,.69Zm.78,14.6c0,.16-.6,.49-1.14,.49h-.27v-12.81l2.06,.22c-.06,.24-.21,.43-.64,.49v11.62Zm-.31,2.45c3.98-1,7.3-2.45,9.94-5.75l1.94,1.16c-.14,.2-.33,.25-.8,.14-3.11,2.98-6.62,4.18-11,4.81l-.08-.35Zm9.39-14.64c-.6,1.24-1.42,2.28-2.46,3.18,1.36,.73,3.03,1.22,5.12,1.49l-.04,.22c-.58,.2-.97,.61-1.07,1.37-2.15-.51-3.73-1.29-4.95-2.33-1.48,1.02-3.24,1.8-5.28,2.37l-.14-.27c1.86-.75,3.44-1.69,4.66-2.83-.68-.75-1.24-1.59-1.73-2.53-.82,1.06-1.73,1.94-2.68,2.57l-.27-.22c1.26-1.41,2.5-3.73,3.24-6.16l2.08,.8c-.08,.22-.31,.37-.74,.33-.23,.49-.5,.98-.78,1.43h4.7l.97-1.28s1.11,.88,1.79,1.53c-.04,.22-.23,.31-.5,.31h-1.92Zm-1.48,6.24c-.14,.18-.29,.24-.68,.14-1.63,1.12-3.77,2-5.82,2.55l-.21-.37c1.8-.79,3.65-2,5.03-3.41l1.69,1.1Zm-6.71,5.3c2.56-1.06,5.05-2.55,6.97-4.59l1.73,1.12c-.16,.2-.31,.24-.74,.14-2.19,1.71-4.95,2.92-7.8,3.67l-.16-.33Zm2.58-11.24c.56,.86,1.24,1.61,2.1,2.24,.7-.77,1.24-1.61,1.63-2.53h-3.51l-.21,.29Z"/><path class="cls-1" d="M348.88,58.84c-.17,.16-.43,.2-.87,.22-1.53,1.08-3.77,2.49-5.84,3.47l.12,.02c-.06,.27-.23,.45-.66,.51v9.38c0,1.26-.31,2-2.72,2.22-.08-.51-.21-.86-.6-1.14-.39-.27-1.03-.47-2.25-.63v-.29s2.87,.2,3.42,.2c.39,0,.52-.14,.52-.45v-10.03l1.55,.16c1.49-1.08,3.16-2.57,4.21-3.65h-12.38l-.17-.55h12.85l1.09-1.02,1.75,1.59Z"/><path class="cls-1" d="M367.43,63.59s1.03,.9,1.63,1.53c-.06,.22-.23,.31-.5,.31h-2.39v8.73c-.02,.12-.5,.49-1.28,.49h-.27v-9.22h-2.68c-.1,3.57-.87,7.04-5.22,9.28l-.23-.22c3.24-2.47,3.88-5.57,3.96-9.07h-2.13l-.16-.57h2.29v-5.97h-1.75l-.06-.2c-.08,.06-.21,.1-.37,.1h-3.16c-.27,1.69-.7,3.3-1.28,4.79l.37,.16h1.79l.76-.82,1.63,1.26c-.12,.14-.41,.28-.76,.35v7.46c-.02,.1-.72,.41-1.2,.41h-.25v-1.3h-2.21v1.75c0,.14-.47,.49-1.16,.49h-.25v-7.04c-.48,.82-1.03,1.59-1.65,2.32l-.29-.22c1.55-2.65,2.43-6.14,2.89-9.6h-2.45l-.16-.55h5.14l.95-1.26s.97,.77,1.65,1.35h7.36l.97-1.3s1.12,.9,1.77,1.53c-.04,.22-.23,.31-.49,.31h-2.06v5.97h.37l.89-1.28Zm-13.49,.71v6.24h2.21v-6.24h-2.21Zm10.67,.57v-5.97h-2.68v5.97h2.68Z"/><path class="cls-1" d="M387.87,72.62c.43,.16,.52,.35,.52,.67,0,.69-.66,1.02-3.12,1.02h-1.57c-1.5,0-1.73-.35-1.73-1.47v-5.28h-3.47c-.66,3.28-2.62,5.81-8,7.12l-.16-.28c4.31-1.51,5.96-3.92,6.46-6.85h-5.36l-.17-.59h5.61c.12-.96,.14-1.96,.08-3l2.52,.2c-.04,.33-.29,.49-.7,.53-.02,.79-.08,1.55-.19,2.28h3.16l.83-.88,1.61,1.37c-.1,.12-.29,.22-.66,.27v4.73c0,.25,.08,.31,.54,.31h2.48c.17-.02,.27-.06,.35-.24,.16-.29,.39-1.29,.64-2.35h.25l.06,2.43Zm-14.42-12.93c-.04,1.29-.62,2.16-1.22,2.55-.56,.35-1.36,.31-1.61-.25-.17-.51,.14-.96,.62-1.26,.83-.39,1.65-1.53,1.63-2.83h.33c.14,.43,.19,.84,.23,1.22h4.97v-2.51l2.27,.22c-.04,.28-.21,.45-.68,.53v1.77h5.24l.95-.96,1.69,1.63c-.14,.16-.35,.2-.74,.22-.64,.57-1.77,1.35-2.62,1.81l-.21-.14c.29-.51,.68-1.33,.93-1.98h-3.34v3.16c0,.24,.06,.31,.62,.31h1.61c.68,0,1.26,0,1.51-.04,.19,0,.31-.04,.39-.16,.14-.2,.35-.73,.56-1.39h.21l.06,1.41c.49,.16,.6,.35,.6,.63,0,.67-.6,.92-3.44,.9h-1.88c-1.53,0-1.83-.29-1.83-1.37v-3.45h-2.41c-.7,3.3-2.87,5.06-6.91,5.98l-.1-.29c3.28-1.22,4.75-2.96,5.26-5.69h-2.72Z"/><path class="cls-1" d="M406.66,72.6c.49,.18,.6,.37,.6,.69,0,.69-.66,.94-3.55,.94h-1.84c-1.57,0-1.92-.35-1.92-1.51v-4.22h-2.85c-.31,2.3-1.63,4.71-6.68,6.16l-.16-.27c3.79-1.67,4.97-3.75,5.26-5.89h-4.7l-.17-.55h4.93c0-.24,.02-.49,.02-.73v-2.63h-2.04l-.12-.43c-1.07,.73-2.27,1.35-3.63,1.84l-.19-.27c3.14-1.65,5.57-4.36,6.73-7.24h-4.44l-.17-.55h4.64l.97-.94,1.61,1.45c-.16,.18-.37,.22-.81,.25-.95,2.02-2.47,3.89-4.54,5.34h7.61l.89-1.2s1.03,.84,1.63,1.43c-.04,.22-.23,.31-.49,.31h-1.75v3.36h2.25l1.01-1.31s1.13,.92,1.82,1.55c-.06,.22-.25,.31-.52,.31h-4.56v3.83c0,.33,.06,.45,.72,.45h1.59c.72,0,1.26-.02,1.51-.02,.19-.02,.29-.08,.41-.24,.16-.29,.41-1.29,.64-2.32h.23l.06,2.39Zm-15.39-13.13c4.31,.67,3.09,3.71,1.59,2.69-.17-.9-.99-1.94-1.77-2.53l.17-.16Zm8.68,8.48v-3.36h-2.78v2.61c0,.25,0,.49-.02,.75h2.79Zm7.53-7.87c-.14,.18-.29,.25-.72,.16-.74,.51-1.98,1.16-3.12,1.65,1.28,.92,2.74,1.63,4.21,2.14l-.04,.22c-.66,.08-1.18,.55-1.44,1.29-3.46-1.71-6.08-4.55-7.26-8.79l.31-.2c.41,1.16,1.03,2.18,1.79,3.1,.83-.84,1.77-1.96,2.23-2.71l1.84,1.1c-.14,.2-.29,.27-.72,.18-.74,.53-1.92,1.26-3.03,1.83,.5,.55,1.07,1.06,1.67,1.53,.91-.82,1.92-1.92,2.43-2.65l1.84,1.16Z"/><path class="cls-1" d="M426.33,66.81c-.14,.2-.31,.27-.74,.16-.99,.73-2.6,1.61-4.15,2.24,1.57,1.81,3.71,2.87,6.13,3.4l-.02,.25c-.78,.31-1.28,.86-1.42,1.63-3.73-1.41-6.27-4.4-7.34-9.46h-.19c-.7,.88-1.55,1.69-2.52,2.43v4.42c1.36-.29,2.87-.65,4.41-1l.06,.29c-1.71,.76-4.15,1.79-7.59,3.06-.08,.26-.25,.41-.47,.47l-.99-1.9c.68-.1,1.75-.31,3.05-.59v-3.71c-1.49,.9-3.18,1.65-4.97,2.24l-.17-.31c2.79-1.31,5.34-3.36,6.93-5.4h-6.5l-.14-.57h7.96v-2.22h-5.88l-.14-.57h6.02v-2.18h-6.68l-.16-.57h6.83v-2.32l2.29,.22c-.04,.28-.21,.47-.7,.55v1.55h4.37l1.01-1.29s1.11,.9,1.79,1.55c-.06,.22-.25,.31-.52,.31h-6.64v2.18h3.8l.93-1.26s1.07,.88,1.71,1.51c-.06,.22-.25,.31-.52,.31h-5.92v2.22h5.22l.99-1.3s1.13,.92,1.81,1.55c-.06,.22-.23,.31-.52,.31h-7.49c.43,1.53,1.09,2.79,1.9,3.83,1.2-1.02,2.48-2.39,3.16-3.34l2.02,1.29Z"/><path class="cls-1" d="M439.93,57.17c-.08,.24-.33,.35-.85,.39,1.73,2.32,5.1,4.28,8.25,5.3l-.04,.29c-.74,.2-1.26,.88-1.42,1.51-3.07-1.45-5.84-4.06-7.12-6.87-1.77,2.75-5.67,5.71-9.41,7.2l-.16-.27c3.32-1.81,7.04-5.55,8-8.22l2.76,.67Zm4.46,8.36s1.22,.92,2,1.61c-.06,.22-.27,.31-.54,.31h-8.11c-.87,1.61-2.06,3.51-3.11,4.87,2.23-.12,5.01-.29,7.96-.49-.74-1.06-1.63-2.08-2.45-2.85l.21-.16c6.64,2.67,5.51,6.97,3.57,5.59-.21-.69-.58-1.43-1.07-2.16-2.56,.51-6,1.1-10.75,1.83-.12,.24-.33,.37-.52,.41l-.95-2c.78-.02,1.86-.06,3.18-.14,.66-1.41,1.4-3.41,1.82-4.91h-5.28l-.17-.57h13.1l1.11-1.35Zm-3.3-3.45s1.17,.88,1.9,1.55c-.04,.22-.25,.31-.52,.31h-8.91l-.14-.57h6.62l1.05-1.3Z"/></g><g><path class="cls-1" d="M4.34,92.5v.25H.35v-.25h.33c.38,0,.66-.11,.84-.34,.11-.15,.17-.5,.17-1.06v-6.02c0-.47-.03-.78-.09-.93-.05-.12-.14-.21-.28-.3-.2-.11-.41-.17-.63-.17H.35v-.25h3.99v.25h-.34c-.38,0-.66,.11-.83,.34-.11,.15-.17,.5-.17,1.06v6.02c0,.47,.03,.78,.09,.93,.05,.11,.14,.21,.29,.29,.2,.11,.41,.17,.62,.17h.34Z"/><path class="cls-1" d="M6.96,87.61c.74-.89,1.44-1.33,2.11-1.33,.34,0,.64,.09,.89,.26,.25,.17,.44,.45,.59,.85,.1,.27,.15,.7,.15,1.26v2.69c0,.4,.03,.67,.1,.81,.05,.11,.13,.2,.24,.27,.11,.06,.32,.1,.62,.1v.25h-3.11v-.25h.13c.29,0,.5-.04,.62-.13,.12-.09,.2-.22,.24-.4,.02-.07,.03-.28,.03-.65v-2.58c0-.57-.08-.99-.22-1.25s-.4-.39-.75-.39c-.54,0-1.09,.3-1.63,.89v3.32c0,.43,.03,.69,.08,.79,.06,.13,.15,.23,.26,.29s.34,.09,.68,.09v.25h-3.11v-.25h.14c.32,0,.54-.08,.65-.24,.11-.16,.17-.47,.17-.93v-2.33c0-.76-.02-1.22-.05-1.38s-.09-.28-.16-.34-.17-.09-.29-.09c-.13,0-.28,.03-.46,.1l-.1-.25,1.9-.77h.29v1.33Z"/><path class="cls-1" d="M16.22,86.27v2.14h-.23c-.17-.67-.4-1.13-.67-1.37-.27-.24-.62-.36-1.04-.36-.32,0-.58,.08-.78,.25-.2,.17-.3,.36-.3,.56,0,.26,.07,.48,.22,.66,.14,.19,.43,.39,.87,.6l1,.49c.93,.45,1.39,1.05,1.39,1.79,0,.57-.22,1.03-.65,1.38s-.92,.53-1.45,.53c-.38,0-.82-.07-1.32-.21-.15-.05-.28-.07-.37-.07-.11,0-.19,.06-.25,.18h-.23v-2.25h.23c.13,.64,.37,1.12,.73,1.45s.77,.49,1.22,.49c.32,0,.57-.09,.77-.28s.3-.41,.3-.67c0-.32-.11-.58-.33-.8-.22-.22-.67-.49-1.33-.82-.66-.33-1.1-.63-1.3-.89-.21-.26-.31-.59-.31-.99,0-.52,.18-.95,.53-1.3,.36-.35,.81-.52,1.38-.52,.25,0,.55,.05,.9,.16,.23,.07,.39,.1,.47,.1,.07,0,.13-.02,.17-.05s.09-.1,.14-.21h.23Z"/><path class="cls-1" d="M19.46,84.39v2.07h1.47v.48h-1.47v4.08c0,.41,.06,.68,.17,.82,.12,.14,.27,.21,.45,.21,.15,0,.3-.05,.44-.14,.14-.09,.25-.23,.33-.42h.27c-.16,.45-.39,.79-.68,1.01s-.6,.34-.91,.34c-.21,0-.42-.06-.62-.17-.2-.12-.35-.28-.45-.5-.1-.22-.14-.55-.14-1.01v-4.23h-1v-.23c.25-.1,.51-.27,.77-.51,.26-.24,.5-.53,.7-.86,.11-.17,.25-.49,.44-.95h.21Z"/><path class="cls-1" d="M23.71,86.27v5.05c0,.39,.03,.66,.08,.79,.06,.13,.14,.23,.25,.29,.11,.06,.32,.1,.61,.1v.25h-3.06v-.25c.31,0,.51-.03,.62-.09,.11-.06,.19-.16,.25-.29s.09-.4,.09-.79v-2.42c0-.68-.02-1.12-.06-1.33-.03-.15-.08-.25-.15-.31-.07-.06-.16-.09-.28-.09-.13,0-.28,.03-.47,.1l-.1-.25,1.9-.77h.3Zm-.57-3.29c.19,0,.36,.07,.49,.2,.13,.14,.2,.3,.2,.49s-.07,.36-.2,.5c-.14,.14-.3,.21-.49,.21s-.36-.07-.5-.21c-.14-.14-.21-.3-.21-.5s.07-.36,.2-.49c.13-.13,.3-.2,.5-.2Z"/><path class="cls-1" d="M27.28,84.39v2.07h1.47v.48h-1.47v4.08c0,.41,.06,.68,.17,.82,.12,.14,.27,.21,.45,.21,.15,0,.3-.05,.44-.14,.14-.09,.25-.23,.33-.42h.27c-.16,.45-.39,.79-.68,1.01s-.6,.34-.91,.34c-.21,0-.42-.06-.62-.17-.2-.12-.35-.28-.45-.5-.1-.22-.14-.55-.14-1.01v-4.23h-1v-.23c.25-.1,.51-.27,.77-.51,.26-.24,.5-.53,.7-.86,.11-.17,.25-.49,.44-.95h.21Z"/><path class="cls-1" d="M34.87,86.46v3.81c0,.73,.02,1.17,.05,1.34,.04,.16,.09,.28,.17,.34,.08,.06,.16,.1,.26,.1,.14,0,.3-.04,.48-.12l.1,.24-1.88,.78h-.31v-1.33c-.54,.59-.95,.95-1.24,1.11-.28,.15-.58,.23-.9,.23-.35,0-.66-.1-.92-.31s-.44-.47-.54-.79-.15-.77-.15-1.36v-2.81c0-.3-.03-.5-.1-.62-.06-.12-.16-.2-.29-.26s-.35-.09-.68-.09v-.25h2.21v4.21c0,.59,.1,.97,.31,1.15,.2,.18,.45,.27,.74,.27,.2,0,.42-.06,.67-.19,.25-.12,.55-.36,.89-.71v-3.57c0-.36-.07-.6-.2-.72-.13-.13-.4-.19-.81-.2v-.25h2.14Z"/><path class="cls-1" d="M38.22,84.39v2.07h1.47v.48h-1.47v4.08c0,.41,.06,.68,.17,.82,.12,.14,.27,.21,.45,.21,.15,0,.3-.05,.44-.14,.14-.09,.25-.23,.33-.42h.27c-.16,.45-.39,.79-.68,1.01s-.6,.34-.91,.34c-.21,0-.42-.06-.62-.17-.2-.12-.35-.28-.45-.5-.1-.22-.14-.55-.14-1.01v-4.23h-1v-.23c.25-.1,.51-.27,.77-.51,.26-.24,.5-.53,.7-.86,.11-.17,.25-.49,.44-.95h.21Z"/><path class="cls-1" d="M41.36,88.83c0,.93,.22,1.67,.68,2.2,.46,.53,1,.8,1.61,.8,.41,0,.77-.11,1.08-.34s.56-.61,.77-1.16l.21,.14c-.1,.63-.38,1.2-.84,1.71-.46,.51-1.04,.77-1.74,.77-.76,0-1.4-.29-1.94-.88-.54-.59-.81-1.38-.81-2.37,0-1.08,.28-1.92,.83-2.52,.55-.6,1.24-.9,2.08-.9,.71,0,1.28,.23,1.74,.7s.68,1.09,.68,1.86h-4.35Zm0-.4h2.91c-.02-.4-.07-.69-.14-.85-.12-.26-.29-.46-.51-.6-.23-.15-.46-.22-.71-.22-.38,0-.72,.15-1.02,.44-.3,.29-.47,.71-.53,1.23Z"/><path class="cls-1" d="M53.13,86.27c.95,0,1.72,.36,2.29,1.08,.49,.62,.74,1.33,.74,2.13,0,.56-.14,1.13-.41,1.71-.27,.58-.64,1.01-1.12,1.3-.47,.29-1,.44-1.58,.44-.95,0-1.7-.38-2.26-1.13-.47-.64-.71-1.35-.71-2.14,0-.58,.14-1.15,.43-1.72,.29-.57,.66-.99,1.13-1.26s.96-.41,1.48-.41Zm-.21,.45c-.24,0-.49,.07-.73,.22-.25,.14-.44,.4-.59,.76-.15,.36-.23,.83-.23,1.39,0,.92,.18,1.71,.55,2.37,.36,.66,.84,1,1.44,1,.44,0,.81-.18,1.1-.55,.29-.37,.43-1,.43-1.89,0-1.12-.24-2-.72-2.64-.33-.44-.74-.66-1.24-.66Z"/><path class="cls-1" d="M59.55,86.95v4.13c0,.59,.06,.96,.19,1.11,.17,.2,.4,.3,.68,.3h.57v.25h-3.76v-.25h.28c.18,0,.35-.05,.5-.14,.15-.09,.25-.21,.31-.37,.06-.16,.09-.46,.09-.91v-4.13h-1.22v-.49h1.22v-.41c0-.63,.1-1.16,.3-1.59,.2-.43,.51-.79,.92-1.05,.41-.27,.88-.4,1.4-.4,.48,0,.92,.16,1.33,.47,.26,.21,.4,.44,.4,.69,0,.14-.06,.27-.18,.39-.12,.12-.25,.18-.38,.18-.11,0-.22-.04-.33-.11-.12-.08-.26-.24-.43-.49s-.33-.42-.47-.5c-.14-.09-.3-.13-.47-.13-.21,0-.39,.06-.54,.17s-.25,.29-.32,.52c-.06,.24-.1,.84-.1,1.82v.45h1.62v.49h-1.62Z"/><path class="cls-1" d="M71.29,89.63h-3.61l-.63,1.47c-.16,.36-.23,.63-.23,.81,0,.14,.07,.27,.2,.37s.43,.18,.88,.21v.25h-2.93v-.25c.39-.07,.64-.16,.75-.27,.23-.22,.49-.67,.78-1.34l3.28-7.67h.24l3.24,7.75c.26,.62,.5,1.03,.71,1.21s.51,.29,.89,.31v.25h-3.67v-.25c.37-.02,.62-.08,.75-.19,.13-.11,.2-.23,.2-.38,0-.2-.09-.52-.27-.96l-.56-1.34Zm-.19-.51l-1.58-3.76-1.62,3.76h3.2Z"/><path class="cls-1" d="M79.89,92.04c-.31,.32-.61,.55-.9,.69s-.61,.21-.95,.21c-.69,0-1.29-.29-1.8-.86-.51-.57-.77-1.31-.77-2.21s.28-1.73,.85-2.48c.57-.75,1.3-1.12,2.19-1.12,.55,0,1.01,.18,1.37,.53v-1.16c0-.72-.02-1.16-.05-1.33-.03-.16-.09-.28-.16-.34-.07-.06-.17-.09-.28-.09-.12,0-.28,.04-.47,.11l-.09-.24,1.88-.77h.31v7.27c0,.74,.02,1.19,.05,1.35s.09,.28,.17,.34c.08,.06,.16,.1,.26,.1,.12,0,.29-.04,.5-.12l.08,.24-1.87,.78h-.32v-.9Zm0-.48v-3.24c-.03-.31-.11-.6-.25-.85-.14-.26-.32-.45-.55-.58-.23-.13-.45-.2-.66-.2-.4,0-.76,.18-1.08,.54-.42,.48-.62,1.17-.62,2.09s.2,1.63,.6,2.13c.4,.49,.85,.74,1.35,.74,.42,0,.82-.21,1.21-.62Z"/><path class="cls-1" d="M82.16,86.46h2.96v.25h-.19c-.18,0-.32,.04-.41,.13s-.14,.2-.14,.35c0,.16,.05,.35,.14,.57l1.46,3.48,1.47-3.61c.11-.26,.16-.45,.16-.58,0-.06-.02-.12-.05-.16-.05-.07-.12-.12-.19-.14-.08-.03-.24-.04-.47-.04v-.25h2.05v.25c-.24,.02-.4,.07-.49,.14-.16,.14-.3,.37-.43,.69l-2.23,5.4h-.28l-2.25-5.31c-.1-.25-.2-.42-.29-.53-.09-.11-.21-.2-.35-.27-.08-.04-.23-.08-.46-.12v-.25Z"/><path class="cls-1" d="M93.08,91.84c-.65,.5-1.05,.79-1.22,.87-.25,.11-.51,.17-.79,.17-.44,0-.79-.15-1.08-.45-.28-.3-.42-.69-.42-1.17,0-.31,.07-.57,.21-.8,.19-.31,.51-.6,.98-.88,.46-.28,1.24-.61,2.32-1v-.25c0-.63-.1-1.06-.3-1.29-.2-.23-.49-.35-.87-.35-.29,0-.52,.08-.69,.23-.17,.16-.26,.33-.26,.54v.4c.01,.21-.04,.37-.15,.49s-.25,.17-.42,.17-.31-.06-.42-.18-.16-.28-.16-.49c0-.39,.2-.75,.6-1.08,.4-.33,.97-.49,1.7-.49,.56,0,1.02,.09,1.37,.28,.27,.14,.47,.36,.6,.67,.08,.2,.12,.6,.12,1.21v2.14c0,.6,.01,.97,.03,1.1,.02,.14,.06,.23,.11,.27s.11,.07,.18,.07c.07,0,.14-.02,.19-.05,.1-.06,.28-.23,.56-.5v.38c-.51,.69-1,1.03-1.47,1.03-.22,0-.4-.08-.54-.23-.13-.16-.2-.42-.21-.8Zm0-.45v-2.4c-.69,.27-1.14,.47-1.34,.58-.36,.2-.62,.41-.78,.63s-.23,.46-.23,.72c0,.33,.1,.6,.29,.82,.2,.22,.42,.33,.68,.33,.35,0,.81-.23,1.37-.69Z"/><path class="cls-1" d="M97.59,87.61c.74-.89,1.44-1.33,2.11-1.33,.34,0,.64,.09,.89,.26,.25,.17,.44,.45,.59,.85,.1,.27,.15,.7,.15,1.26v2.69c0,.4,.03,.67,.1,.81,.05,.11,.13,.2,.24,.27,.11,.06,.32,.1,.62,.1v.25h-3.11v-.25h.13c.29,0,.5-.04,.62-.13,.12-.09,.2-.22,.24-.4,.02-.07,.03-.28,.03-.65v-2.58c0-.57-.08-.99-.22-1.25s-.4-.39-.75-.39c-.54,0-1.09,.3-1.63,.89v3.32c0,.43,.03,.69,.08,.79,.06,.13,.15,.23,.26,.29s.34,.09,.68,.09v.25h-3.11v-.25h.14c.32,0,.54-.08,.65-.24,.11-.16,.17-.47,.17-.93v-2.33c0-.76-.02-1.22-.05-1.38s-.09-.28-.16-.34-.17-.09-.29-.09c-.13,0-.28,.03-.46,.1l-.1-.25,1.9-.77h.29v1.33Z"/><path class="cls-1" d="M108.14,90.36c-.17,.83-.5,1.47-1,1.91s-1.04,.67-1.64,.67c-.71,0-1.34-.3-1.87-.9-.53-.6-.8-1.41-.8-2.43s.29-1.79,.88-2.41c.59-.62,1.29-.93,2.12-.93,.62,0,1.13,.16,1.52,.49,.4,.33,.6,.67,.6,1.02,0,.17-.06,.31-.17,.42-.11,.11-.27,.16-.47,.16-.27,0-.47-.09-.61-.26-.08-.1-.13-.28-.15-.55-.03-.27-.12-.48-.28-.62-.16-.14-.38-.21-.67-.21-.46,0-.83,.17-1.11,.51-.37,.45-.56,1.04-.56,1.78s.18,1.41,.55,1.99c.37,.58,.87,.86,1.49,.86,.45,0,.85-.15,1.21-.46,.25-.21,.5-.59,.74-1.15l.2,.1Z"/><path class="cls-1" d="M110.09,88.83c0,.93,.22,1.67,.68,2.2,.46,.53,1,.8,1.61,.8,.41,0,.77-.11,1.08-.34s.56-.61,.77-1.16l.21,.14c-.1,.63-.38,1.2-.84,1.71-.46,.51-1.04,.77-1.74,.77-.76,0-1.4-.29-1.94-.88-.54-.59-.81-1.38-.81-2.37,0-1.08,.28-1.92,.83-2.52,.55-.6,1.24-.9,2.08-.9,.71,0,1.28,.23,1.74,.7s.68,1.09,.68,1.86h-4.35Zm0-.4h2.91c-.02-.4-.07-.69-.14-.85-.12-.26-.29-.46-.51-.6-.23-.15-.46-.22-.71-.22-.38,0-.72,.15-1.02,.44-.3,.29-.47,.71-.53,1.23Z"/><path class="cls-1" d="M119.72,92.04c-.31,.32-.61,.55-.9,.69s-.61,.21-.95,.21c-.69,0-1.29-.29-1.8-.86-.51-.57-.77-1.31-.77-2.21s.28-1.73,.85-2.48c.57-.75,1.3-1.12,2.19-1.12,.55,0,1.01,.18,1.37,.53v-1.16c0-.72-.02-1.16-.05-1.33-.03-.16-.09-.28-.16-.34-.07-.06-.17-.09-.28-.09-.12,0-.28,.04-.47,.11l-.09-.24,1.88-.77h.31v7.27c0,.74,.02,1.19,.05,1.35s.09,.28,.17,.34c.08,.06,.16,.1,.26,.1,.12,0,.29-.04,.5-.12l.08,.24-1.87,.78h-.32v-.9Zm0-.48v-3.24c-.03-.31-.11-.6-.25-.85-.14-.26-.32-.45-.55-.58-.23-.13-.45-.2-.66-.2-.4,0-.76,.18-1.08,.54-.42,.48-.62,1.17-.62,2.09s.2,1.63,.6,2.13c.4,.49,.85,.74,1.35,.74,.42,0,.82-.21,1.21-.62Z"/><path class="cls-1" d="M131.15,92.75l-3.6-7.84v6.22c0,.57,.06,.93,.19,1.07,.17,.19,.44,.29,.8,.29h.33v.25h-3.24v-.25h.33c.39,0,.67-.12,.84-.36,.1-.15,.15-.48,.15-1v-6.08c0-.41-.04-.71-.14-.89-.06-.13-.18-.24-.35-.33-.17-.09-.45-.13-.83-.13v-.25h2.64l3.38,7.29,3.32-7.29h2.64v.25h-.32c-.4,0-.68,.12-.84,.36-.1,.15-.15,.48-.15,1v6.08c0,.57,.06,.93,.19,1.07,.17,.19,.44,.29,.8,.29h.32v.25h-3.96v-.25h.33c.4,0,.68-.12,.84-.36,.1-.15,.15-.48,.15-1v-6.22l-3.59,7.84h-.23Z"/><path class="cls-1" d="M139.39,88.83c0,.93,.22,1.67,.68,2.2,.46,.53,1,.8,1.61,.8,.41,0,.77-.11,1.08-.34s.56-.61,.77-1.16l.21,.14c-.1,.63-.38,1.2-.84,1.71-.46,.51-1.04,.77-1.74,.77-.76,0-1.4-.29-1.94-.88-.54-.59-.81-1.38-.81-2.37,0-1.08,.28-1.92,.83-2.52,.55-.6,1.24-.9,2.08-.9,.71,0,1.28,.23,1.74,.7s.68,1.09,.68,1.86h-4.35Zm0-.4h2.91c-.02-.4-.07-.69-.14-.85-.12-.26-.29-.46-.51-.6-.23-.15-.46-.22-.71-.22-.38,0-.72,.15-1.02,.44-.3,.29-.47,.71-.53,1.23Z"/><path class="cls-1" d="M149.02,92.04c-.31,.32-.61,.55-.9,.69s-.61,.21-.95,.21c-.69,0-1.29-.29-1.8-.86-.51-.57-.77-1.31-.77-2.21s.28-1.73,.85-2.48c.57-.75,1.3-1.12,2.19-1.12,.55,0,1.01,.18,1.37,.53v-1.16c0-.72-.02-1.16-.05-1.33-.03-.16-.09-.28-.16-.34-.07-.06-.17-.09-.28-.09-.12,0-.28,.04-.47,.11l-.09-.24,1.88-.77h.31v7.27c0,.74,.02,1.19,.05,1.35s.09,.28,.17,.34c.08,.06,.16,.1,.26,.1,.12,0,.29-.04,.5-.12l.08,.24-1.87,.78h-.32v-.9Zm0-.48v-3.24c-.03-.31-.11-.6-.25-.85-.14-.26-.32-.45-.55-.58-.23-.13-.45-.2-.66-.2-.4,0-.76,.18-1.08,.54-.42,.48-.62,1.17-.62,2.09s.2,1.63,.6,2.13c.4,.49,.85,.74,1.35,.74,.42,0,.82-.21,1.21-.62Z"/><path class="cls-1" d="M153.78,86.27v5.05c0,.39,.03,.66,.08,.79,.06,.13,.14,.23,.25,.29,.11,.06,.32,.1,.61,.1v.25h-3.06v-.25c.31,0,.51-.03,.62-.09,.11-.06,.19-.16,.25-.29s.09-.4,.09-.79v-2.42c0-.68-.02-1.12-.06-1.33-.03-.15-.08-.25-.15-.31-.07-.06-.16-.09-.28-.09-.13,0-.28,.03-.47,.1l-.1-.25,1.9-.77h.3Zm-.57-3.29c.19,0,.36,.07,.49,.2,.13,.14,.2,.3,.2,.49s-.07,.36-.2,.5c-.14,.14-.3,.21-.49,.21s-.36-.07-.5-.21c-.14-.14-.21-.3-.21-.5s.07-.36,.2-.49c.13-.13,.3-.2,.5-.2Z"/><path class="cls-1" d="M159.09,91.84c-.65,.5-1.05,.79-1.22,.87-.25,.11-.51,.17-.79,.17-.44,0-.79-.15-1.08-.45-.28-.3-.42-.69-.42-1.17,0-.31,.07-.57,.21-.8,.19-.31,.51-.6,.98-.88,.46-.28,1.24-.61,2.32-1v-.25c0-.63-.1-1.06-.3-1.29-.2-.23-.49-.35-.87-.35-.29,0-.52,.08-.69,.23-.17,.16-.26,.33-.26,.54v.4c.01,.21-.04,.37-.15,.49s-.25,.17-.42,.17-.31-.06-.42-.18-.16-.28-.16-.49c0-.39,.2-.75,.6-1.08,.4-.33,.97-.49,1.7-.49,.56,0,1.02,.09,1.37,.28,.27,.14,.47,.36,.6,.67,.08,.2,.12,.6,.12,1.21v2.14c0,.6,.01,.97,.03,1.1,.02,.14,.06,.23,.11,.27s.11,.07,.18,.07c.07,0,.14-.02,.19-.05,.1-.06,.28-.23,.56-.5v.38c-.51,.69-1,1.03-1.47,1.03-.22,0-.4-.08-.54-.23-.13-.16-.2-.42-.21-.8Zm0-.45v-2.4c-.69,.27-1.14,.47-1.34,.58-.36,.2-.62,.41-.78,.63s-.23,.46-.23,.72c0,.33,.1,.6,.29,.82,.2,.22,.42,.33,.68,.33,.35,0,.81-.23,1.37-.69Z"/><path class="cls-1" d="M171.28,89.63h-3.61l-.63,1.47c-.16,.36-.23,.63-.23,.81,0,.14,.07,.27,.2,.37s.43,.18,.88,.21v.25h-2.93v-.25c.39-.07,.64-.16,.75-.27,.23-.22,.49-.67,.78-1.34l3.28-7.67h.24l3.24,7.75c.26,.62,.5,1.03,.71,1.21s.51,.29,.89,.31v.25h-3.67v-.25c.37-.02,.62-.08,.75-.19,.13-.11,.2-.23,.2-.38,0-.2-.09-.52-.27-.96l-.56-1.34Zm-.19-.51l-1.58-3.76-1.62,3.76h3.2Z"/><path class="cls-1" d="M177.28,86.27v1.42c.53-.94,1.07-1.42,1.62-1.42,.25,0,.46,.08,.62,.23,.17,.15,.25,.33,.25,.53,0,.18-.06,.33-.18,.45-.12,.12-.26,.19-.43,.19s-.34-.08-.54-.24-.35-.24-.44-.24c-.08,0-.17,.05-.27,.14-.21,.19-.42,.5-.64,.93v3.02c0,.35,.04,.61,.13,.79,.06,.12,.16,.23,.32,.31,.15,.08,.37,.12,.65,.12v.25h-3.22v-.25c.32,0,.56-.05,.71-.15,.11-.07,.19-.19,.24-.35,.02-.08,.04-.3,.04-.67v-2.44c0-.73-.02-1.17-.04-1.31-.03-.14-.08-.24-.17-.31-.08-.06-.18-.1-.3-.1-.14,0-.3,.03-.48,.1l-.07-.25,1.9-.77h.29Z"/><path class="cls-1" d="M181.95,84.39v2.07h1.47v.48h-1.47v4.08c0,.41,.06,.68,.17,.82,.12,.14,.27,.21,.45,.21,.15,0,.3-.05,.44-.14,.14-.09,.25-.23,.33-.42h.27c-.16,.45-.39,.79-.68,1.01s-.6,.34-.91,.34c-.21,0-.42-.06-.62-.17-.2-.12-.35-.28-.45-.5-.1-.22-.14-.55-.14-1.01v-4.23h-1v-.23c.25-.1,.51-.27,.77-.51,.26-.24,.5-.53,.7-.86,.11-.17,.25-.49,.44-.95h.21Z"/><path class="cls-1" d="M188.1,86.27v2.14h-.23c-.17-.67-.4-1.13-.67-1.37-.27-.24-.62-.36-1.04-.36-.32,0-.58,.08-.78,.25-.2,.17-.3,.36-.3,.56,0,.26,.07,.48,.22,.66,.14,.19,.43,.39,.87,.6l1,.49c.93,.45,1.39,1.05,1.39,1.79,0,.57-.22,1.03-.65,1.38s-.92,.53-1.45,.53c-.38,0-.82-.07-1.32-.21-.15-.05-.28-.07-.37-.07-.11,0-.19,.06-.25,.18h-.23v-2.25h.23c.13,.64,.37,1.12,.73,1.45s.77,.49,1.22,.49c.32,0,.57-.09,.77-.28s.3-.41,.3-.67c0-.32-.11-.58-.33-.8-.22-.22-.67-.49-1.33-.82-.66-.33-1.1-.63-1.3-.89-.21-.26-.31-.59-.31-.99,0-.52,.18-.95,.53-1.3,.36-.35,.81-.52,1.38-.52,.25,0,.55,.05,.9,.16,.23,.07,.39,.1,.47,.1,.07,0,.13-.02,.17-.05s.09-.1,.14-.21h.23Z"/><path class="cls-1" d="M196.59,91.84c-.65,.5-1.05,.79-1.22,.87-.25,.11-.51,.17-.79,.17-.44,0-.79-.15-1.08-.45-.28-.3-.42-.69-.42-1.17,0-.31,.07-.57,.21-.8,.19-.31,.51-.6,.98-.88,.46-.28,1.24-.61,2.32-1v-.25c0-.63-.1-1.06-.3-1.29-.2-.23-.49-.35-.87-.35-.29,0-.52,.08-.69,.23-.17,.16-.26,.33-.26,.54v.4c.01,.21-.04,.37-.15,.49s-.25,.17-.42,.17-.31-.06-.42-.18-.16-.28-.16-.49c0-.39,.2-.75,.6-1.08,.4-.33,.97-.49,1.7-.49,.56,0,1.02,.09,1.37,.28,.27,.14,.47,.36,.6,.67,.08,.2,.12,.6,.12,1.21v2.14c0,.6,.01,.97,.03,1.1,.02,.14,.06,.23,.11,.27s.11,.07,.18,.07c.07,0,.14-.02,.19-.05,.1-.06,.28-.23,.56-.5v.38c-.51,.69-1,1.03-1.47,1.03-.22,0-.4-.08-.54-.23-.13-.16-.2-.42-.21-.8Zm0-.45v-2.4c-.69,.27-1.14,.47-1.34,.58-.36,.2-.62,.41-.78,.63s-.23,.46-.23,.72c0,.33,.1,.6,.29,.82,.2,.22,.42,.33,.68,.33,.35,0,.81-.23,1.37-.69Z"/><path class="cls-1" d="M201.1,87.61c.74-.89,1.44-1.33,2.11-1.33,.34,0,.64,.09,.89,.26,.25,.17,.44,.45,.59,.85,.1,.27,.15,.7,.15,1.26v2.69c0,.4,.03,.67,.1,.81,.05,.11,.13,.2,.24,.27,.11,.06,.32,.1,.62,.1v.25h-3.11v-.25h.13c.29,0,.5-.04,.62-.13,.12-.09,.2-.22,.24-.4,.02-.07,.03-.28,.03-.65v-2.58c0-.57-.08-.99-.22-1.25s-.4-.39-.75-.39c-.54,0-1.09,.3-1.63,.89v3.32c0,.43,.03,.69,.08,.79,.06,.13,.15,.23,.26,.29s.34,.09,.68,.09v.25h-3.11v-.25h.14c.32,0,.54-.08,.65-.24,.11-.16,.17-.47,.17-.93v-2.33c0-.76-.02-1.22-.05-1.38s-.09-.28-.16-.34-.17-.09-.29-.09c-.13,0-.28,.03-.46,.1l-.1-.25,1.9-.77h.29v1.33Z"/><path class="cls-1" d="M210.74,92.04c-.31,.32-.61,.55-.9,.69s-.61,.21-.95,.21c-.69,0-1.29-.29-1.8-.86-.51-.57-.77-1.31-.77-2.21s.28-1.73,.85-2.48c.57-.75,1.3-1.12,2.19-1.12,.55,0,1.01,.18,1.37,.53v-1.16c0-.72-.02-1.16-.05-1.33-.03-.16-.09-.28-.16-.34-.07-.06-.17-.09-.28-.09-.12,0-.28,.04-.47,.11l-.09-.24,1.88-.77h.31v7.27c0,.74,.02,1.19,.05,1.35s.09,.28,.17,.34c.08,.06,.16,.1,.26,.1,.12,0,.29-.04,.5-.12l.08,.24-1.87,.78h-.32v-.9Zm0-.48v-3.24c-.03-.31-.11-.6-.25-.85-.14-.26-.32-.45-.55-.58-.23-.13-.45-.2-.66-.2-.4,0-.76,.18-1.08,.54-.42,.48-.62,1.17-.62,2.09s.2,1.63,.6,2.13c.4,.49,.85,.74,1.35,.74,.42,0,.82-.21,1.21-.62Z"/><path class="cls-1" d="M222.86,83.22v3.22h-.25c-.08-.62-.23-1.11-.44-1.48-.21-.37-.52-.66-.91-.87-.39-.21-.8-.32-1.22-.32-.48,0-.87,.15-1.18,.44-.31,.29-.47,.62-.47,.99,0,.28,.1,.54,.29,.78,.28,.34,.96,.8,2.03,1.37,.87,.47,1.46,.83,1.78,1.08,.32,.25,.56,.54,.73,.88s.26,.69,.26,1.07c0,.71-.27,1.31-.82,1.82-.55,.51-1.25,.77-2.11,.77-.27,0-.52-.02-.76-.06-.14-.02-.44-.11-.88-.25-.45-.14-.73-.22-.85-.22s-.21,.04-.27,.1-.12,.21-.15,.43h-.25v-3.19h.25c.12,.67,.28,1.17,.48,1.5s.51,.61,.92,.83,.87,.33,1.36,.33c.57,0,1.02-.15,1.36-.45,.33-.3,.5-.66,.5-1.07,0-.23-.06-.46-.19-.69s-.32-.45-.59-.65c-.18-.14-.67-.43-1.46-.88-.8-.45-1.36-.8-1.7-1.07-.34-.27-.59-.56-.77-.88-.17-.32-.26-.67-.26-1.06,0-.67,.26-1.24,.77-1.73s1.17-.72,1.96-.72c.5,0,1.02,.12,1.57,.36,.26,.11,.44,.17,.54,.17,.12,0,.22-.04,.29-.11,.08-.07,.14-.21,.18-.43h.25Z"/><path class="cls-1" d="M230.01,90.36c-.17,.83-.5,1.47-1,1.91s-1.04,.67-1.64,.67c-.71,0-1.34-.3-1.87-.9-.53-.6-.8-1.41-.8-2.43s.29-1.79,.88-2.41c.59-.62,1.29-.93,2.12-.93,.62,0,1.13,.16,1.52,.49,.4,.33,.6,.67,.6,1.02,0,.17-.06,.31-.17,.42-.11,.11-.27,.16-.47,.16-.27,0-.47-.09-.61-.26-.08-.1-.13-.28-.15-.55-.03-.27-.12-.48-.28-.62-.16-.14-.38-.21-.67-.21-.46,0-.83,.17-1.11,.51-.37,.45-.56,1.04-.56,1.78s.18,1.41,.55,1.99c.37,.58,.87,.86,1.49,.86,.45,0,.85-.15,1.21-.46,.25-.21,.5-.59,.74-1.15l.2,.1Z"/><path class="cls-1" d="M233.09,86.27v5.05c0,.39,.03,.66,.08,.79,.06,.13,.14,.23,.25,.29,.11,.06,.32,.1,.61,.1v.25h-3.06v-.25c.31,0,.51-.03,.62-.09,.11-.06,.19-.16,.25-.29s.09-.4,.09-.79v-2.42c0-.68-.02-1.12-.06-1.33-.03-.15-.08-.25-.15-.31-.07-.06-.16-.09-.28-.09-.13,0-.28,.03-.47,.1l-.1-.25,1.9-.77h.3Zm-.57-3.29c.19,0,.36,.07,.49,.2,.13,.14,.2,.3,.2,.49s-.07,.36-.2,.5c-.14,.14-.3,.21-.49,.21s-.36-.07-.5-.21c-.14-.14-.21-.3-.21-.5s.07-.36,.2-.49c.13-.13,.3-.2,.5-.2Z"/><path class="cls-1" d="M235.88,88.83c0,.93,.22,1.67,.68,2.2,.46,.53,1,.8,1.61,.8,.41,0,.77-.11,1.08-.34s.56-.61,.77-1.16l.21,.14c-.1,.63-.38,1.2-.84,1.71-.46,.51-1.04,.77-1.74,.77-.76,0-1.4-.29-1.94-.88-.54-.59-.81-1.38-.81-2.37,0-1.08,.28-1.92,.83-2.52,.55-.6,1.24-.9,2.08-.9,.71,0,1.28,.23,1.74,.7s.68,1.09,.68,1.86h-4.35Zm0-.4h2.91c-.02-.4-.07-.69-.14-.85-.12-.26-.29-.46-.51-.6-.23-.15-.46-.22-.71-.22-.38,0-.72,.15-1.02,.44-.3,.29-.47,.71-.53,1.23Z"/><path class="cls-1" d="M242.9,87.61c.74-.89,1.44-1.33,2.11-1.33,.34,0,.64,.09,.89,.26,.25,.17,.44,.45,.59,.85,.1,.27,.15,.7,.15,1.26v2.69c0,.4,.03,.67,.1,.81,.05,.11,.13,.2,.24,.27,.11,.06,.32,.1,.62,.1v.25h-3.11v-.25h.13c.29,0,.5-.04,.62-.13,.12-.09,.2-.22,.24-.4,.02-.07,.03-.28,.03-.65v-2.58c0-.57-.08-.99-.22-1.25s-.4-.39-.75-.39c-.54,0-1.09,.3-1.63,.89v3.32c0,.43,.03,.69,.08,.79,.06,.13,.15,.23,.26,.29s.34,.09,.68,.09v.25h-3.11v-.25h.14c.32,0,.54-.08,.65-.24,.11-.16,.17-.47,.17-.93v-2.33c0-.76-.02-1.22-.05-1.38s-.09-.28-.16-.34-.17-.09-.29-.09c-.13,0-.28,.03-.46,.1l-.1-.25,1.9-.77h.29v1.33Z"/><path class="cls-1" d="M253.44,90.36c-.17,.83-.5,1.47-1,1.91s-1.04,.67-1.64,.67c-.71,0-1.34-.3-1.87-.9-.53-.6-.8-1.41-.8-2.43s.29-1.79,.88-2.41c.59-.62,1.29-.93,2.12-.93,.62,0,1.13,.16,1.52,.49,.4,.33,.6,.67,.6,1.02,0,.17-.06,.31-.17,.42-.11,.11-.27,.16-.47,.16-.27,0-.47-.09-.61-.26-.08-.1-.13-.28-.15-.55-.03-.27-.12-.48-.28-.62-.16-.14-.38-.21-.67-.21-.46,0-.83,.17-1.11,.51-.37,.45-.56,1.04-.56,1.78s.18,1.41,.55,1.99c.37,.58,.87,.86,1.49,.86,.45,0,.85-.15,1.21-.46,.25-.21,.5-.59,.74-1.15l.2,.1Z"/><path class="cls-1" d="M255.4,88.83c0,.93,.22,1.67,.68,2.2,.46,.53,1,.8,1.61,.8,.41,0,.77-.11,1.08-.34s.56-.61,.77-1.16l.21,.14c-.1,.63-.38,1.2-.84,1.71-.46,.51-1.04,.77-1.74,.77-.76,0-1.4-.29-1.94-.88-.54-.59-.81-1.38-.81-2.37,0-1.08,.28-1.92,.83-2.52,.55-.6,1.24-.9,2.08-.9,.71,0,1.28,.23,1.74,.7s.68,1.09,.68,1.86h-4.35Zm0-.4h2.91c-.02-.4-.07-.69-.14-.85-.12-.26-.29-.46-.51-.6-.23-.15-.46-.22-.71-.22-.38,0-.72,.15-1.02,.44-.3,.29-.47,.71-.53,1.23Z"/><path class="cls-1" d="M264.65,86.27v2.14h-.23c-.17-.67-.4-1.13-.67-1.37-.27-.24-.62-.36-1.04-.36-.32,0-.58,.08-.78,.25-.2,.17-.3,.36-.3,.56,0,.26,.07,.48,.22,.66,.14,.19,.43,.39,.87,.6l1,.49c.93,.45,1.39,1.05,1.39,1.79,0,.57-.22,1.03-.65,1.38s-.92,.53-1.45,.53c-.38,0-.82-.07-1.32-.21-.15-.05-.28-.07-.37-.07-.11,0-.19,.06-.25,.18h-.23v-2.25h.23c.13,.64,.37,1.12,.73,1.45s.77,.49,1.22,.49c.32,0,.57-.09,.77-.28s.3-.41,.3-.67c0-.32-.11-.58-.33-.8-.22-.22-.67-.49-1.33-.82-.66-.33-1.1-.63-1.3-.89-.21-.26-.31-.59-.31-.99,0-.52,.18-.95,.53-1.3,.36-.35,.81-.52,1.38-.52,.25,0,.55,.05,.9,.16,.23,.07,.39,.1,.47,.1,.07,0,.13-.02,.17-.05s.09-.1,.14-.21h.23Z"/><path class="cls-1" d="M277.77,83.22l.24,2.94h-.24c-.24-.73-.56-1.28-.94-1.66-.55-.54-1.27-.8-2.14-.8-1.19,0-2.09,.47-2.71,1.41-.52,.79-.78,1.74-.78,2.83,0,.89,.17,1.7,.51,2.43,.34,.73,.79,1.27,1.35,1.61,.56,.34,1.13,.51,1.71,.51,.34,0,.68-.04,1-.13s.63-.21,.93-.38v-2.69c0-.47-.04-.77-.11-.92-.07-.14-.18-.25-.33-.33-.15-.08-.41-.11-.79-.11v-.26h3.61v.26h-.17c-.36,0-.6,.12-.73,.36-.09,.17-.14,.5-.14,1v2.85c-.53,.28-1.05,.49-1.56,.62-.51,.13-1.08,.2-1.71,.2-1.8,0-3.17-.58-4.1-1.73-.7-.87-1.05-1.86-1.05-3,0-.82,.2-1.6,.59-2.36,.47-.89,1.11-1.58,1.92-2.06,.68-.4,1.49-.6,2.42-.6,.34,0,.65,.03,.92,.08,.28,.06,.67,.18,1.18,.36,.26,.1,.43,.14,.52,.14s.16-.04,.22-.12c.06-.08,.1-.24,.11-.47h.25Z"/><path class="cls-1" d="M281.57,86.27v1.42c.53-.94,1.07-1.42,1.62-1.42,.25,0,.46,.08,.62,.23,.17,.15,.25,.33,.25,.53,0,.18-.06,.33-.18,.45-.12,.12-.26,.19-.43,.19s-.34-.08-.54-.24-.35-.24-.44-.24c-.08,0-.17,.05-.27,.14-.21,.19-.42,.5-.64,.93v3.02c0,.35,.04,.61,.13,.79,.06,.12,.16,.23,.32,.31,.15,.08,.37,.12,.65,.12v.25h-3.22v-.25c.32,0,.56-.05,.71-.15,.11-.07,.19-.19,.24-.35,.02-.08,.04-.3,.04-.67v-2.44c0-.73-.02-1.17-.04-1.31-.03-.14-.08-.24-.17-.31-.08-.06-.18-.1-.3-.1-.14,0-.3,.03-.48,.1l-.07-.25,1.9-.77h.29Z"/><path class="cls-1" d="M287.98,91.84c-.65,.5-1.05,.79-1.22,.87-.25,.11-.51,.17-.79,.17-.44,0-.79-.15-1.08-.45-.28-.3-.42-.69-.42-1.17,0-.31,.07-.57,.21-.8,.19-.31,.51-.6,.98-.88,.46-.28,1.24-.61,2.32-1v-.25c0-.63-.1-1.06-.3-1.29-.2-.23-.49-.35-.87-.35-.29,0-.52,.08-.69,.23-.17,.16-.26,.33-.26,.54v.4c.01,.21-.04,.37-.15,.49s-.25,.17-.42,.17-.31-.06-.42-.18-.16-.28-.16-.49c0-.39,.2-.75,.6-1.08,.4-.33,.97-.49,1.7-.49,.56,0,1.02,.09,1.37,.28,.27,.14,.47,.36,.6,.67,.08,.2,.12,.6,.12,1.21v2.14c0,.6,.01,.97,.03,1.1,.02,.14,.06,.23,.11,.27s.11,.07,.18,.07c.07,0,.14-.02,.19-.05,.1-.06,.28-.23,.56-.5v.38c-.51,.69-1,1.03-1.47,1.03-.22,0-.4-.08-.54-.23-.13-.16-.2-.42-.21-.8Zm0-.45v-2.4c-.69,.27-1.14,.47-1.34,.58-.36,.2-.62,.41-.78,.63s-.23,.46-.23,.72c0,.33,.1,.6,.29,.82,.2,.22,.42,.33,.68,.33,.35,0,.81-.23,1.37-.69Z"/><path class="cls-1" d="M295.11,92.04c-.31,.32-.61,.55-.9,.69s-.61,.21-.95,.21c-.69,0-1.29-.29-1.8-.86-.51-.57-.77-1.31-.77-2.21s.28-1.73,.85-2.48c.57-.75,1.3-1.12,2.19-1.12,.55,0,1.01,.18,1.37,.53v-1.16c0-.72-.02-1.16-.05-1.33-.03-.16-.09-.28-.16-.34-.07-.06-.17-.09-.28-.09-.12,0-.28,.04-.47,.11l-.09-.24,1.88-.77h.31v7.27c0,.74,.02,1.19,.05,1.35s.09,.28,.17,.34c.08,.06,.16,.1,.26,.1,.12,0,.29-.04,.5-.12l.08,.24-1.87,.78h-.32v-.9Zm0-.48v-3.24c-.03-.31-.11-.6-.25-.85-.14-.26-.32-.45-.55-.58-.23-.13-.45-.2-.66-.2-.4,0-.76,.18-1.08,.54-.42,.48-.62,1.17-.62,2.09s.2,1.63,.6,2.13c.4,.49,.85,.74,1.35,.74,.42,0,.82-.21,1.21-.62Z"/><path class="cls-1" d="M303.21,86.46v3.81c0,.73,.02,1.17,.05,1.34,.04,.16,.09,.28,.17,.34,.08,.06,.16,.1,.26,.1,.14,0,.3-.04,.48-.12l.1,.24-1.88,.78h-.31v-1.33c-.54,.59-.95,.95-1.24,1.11-.28,.15-.58,.23-.9,.23-.35,0-.66-.1-.92-.31s-.44-.47-.54-.79-.15-.77-.15-1.36v-2.81c0-.3-.03-.5-.1-.62-.06-.12-.16-.2-.29-.26s-.35-.09-.68-.09v-.25h2.21v4.21c0,.59,.1,.97,.31,1.15,.2,.18,.45,.27,.74,.27,.2,0,.42-.06,.67-.19,.25-.12,.55-.36,.89-.71v-3.57c0-.36-.07-.6-.2-.72-.13-.13-.4-.19-.81-.2v-.25h2.14Z"/><path class="cls-1" d="M308.29,91.84c-.65,.5-1.05,.79-1.22,.87-.25,.11-.51,.17-.79,.17-.44,0-.79-.15-1.08-.45-.28-.3-.42-.69-.42-1.17,0-.31,.07-.57,.21-.8,.19-.31,.51-.6,.98-.88,.46-.28,1.24-.61,2.32-1v-.25c0-.63-.1-1.06-.3-1.29-.2-.23-.49-.35-.87-.35-.29,0-.52,.08-.69,.23-.17,.16-.26,.33-.26,.54v.4c.01,.21-.04,.37-.15,.49s-.25,.17-.42,.17-.31-.06-.42-.18-.16-.28-.16-.49c0-.39,.2-.75,.6-1.08,.4-.33,.97-.49,1.7-.49,.56,0,1.02,.09,1.37,.28,.27,.14,.47,.36,.6,.67,.08,.2,.12,.6,.12,1.21v2.14c0,.6,.01,.97,.03,1.1,.02,.14,.06,.23,.11,.27s.11,.07,.18,.07c.07,0,.14-.02,.19-.05,.1-.06,.28-.23,.56-.5v.38c-.51,.69-1,1.03-1.47,1.03-.22,0-.4-.08-.54-.23-.13-.16-.2-.42-.21-.8Zm0-.45v-2.4c-.69,.27-1.14,.47-1.34,.58-.36,.2-.62,.41-.78,.63s-.23,.46-.23,.72c0,.33,.1,.6,.29,.82,.2,.22,.42,.33,.68,.33,.35,0,.81-.23,1.37-.69Z"/><path class="cls-1" d="M312.8,84.39v2.07h1.47v.48h-1.47v4.08c0,.41,.06,.68,.17,.82,.12,.14,.27,.21,.45,.21,.15,0,.3-.05,.44-.14,.14-.09,.25-.23,.33-.42h.27c-.16,.45-.39,.79-.68,1.01s-.6,.34-.91,.34c-.21,0-.42-.06-.62-.17-.2-.12-.35-.28-.45-.5-.1-.22-.14-.55-.14-1.01v-4.23h-1v-.23c.25-.1,.51-.27,.77-.51,.26-.24,.5-.53,.7-.86,.11-.17,.25-.49,.44-.95h.21Z"/><path class="cls-1" d="M317.05,86.27v5.05c0,.39,.03,.66,.08,.79,.06,.13,.14,.23,.25,.29,.11,.06,.32,.1,.61,.1v.25h-3.06v-.25c.31,0,.51-.03,.62-.09,.11-.06,.19-.16,.25-.29s.09-.4,.09-.79v-2.42c0-.68-.02-1.12-.06-1.33-.03-.15-.08-.25-.15-.31-.07-.06-.16-.09-.28-.09-.13,0-.28,.03-.47,.1l-.1-.25,1.9-.77h.3Zm-.57-3.29c.19,0,.36,.07,.49,.2,.13,.14,.2,.3,.2,.49s-.07,.36-.2,.5c-.14,.14-.3,.21-.49,.21s-.36-.07-.5-.21c-.14-.14-.21-.3-.21-.5s.07-.36,.2-.49c.13-.13,.3-.2,.5-.2Z"/><path class="cls-1" d="M321.86,86.27c.95,0,1.72,.36,2.29,1.08,.49,.62,.74,1.33,.74,2.13,0,.56-.14,1.13-.41,1.71-.27,.58-.64,1.01-1.12,1.3-.47,.29-1,.44-1.58,.44-.95,0-1.7-.38-2.26-1.13-.47-.64-.71-1.35-.71-2.14,0-.58,.14-1.15,.43-1.72,.29-.57,.66-.99,1.13-1.26s.96-.41,1.48-.41Zm-.21,.45c-.24,0-.49,.07-.73,.22-.25,.14-.44,.4-.59,.76-.15,.36-.23,.83-.23,1.39,0,.92,.18,1.71,.55,2.37,.36,.66,.84,1,1.44,1,.44,0,.81-.18,1.1-.55,.29-.37,.43-1,.43-1.89,0-1.12-.24-2-.72-2.64-.33-.44-.74-.66-1.24-.66Z"/><path class="cls-1" d="M327.65,87.61c.74-.89,1.44-1.33,2.11-1.33,.34,0,.64,.09,.89,.26,.25,.17,.44,.45,.59,.85,.1,.27,.15,.7,.15,1.26v2.69c0,.4,.03,.67,.1,.81,.05,.11,.13,.2,.24,.27,.11,.06,.32,.1,.62,.1v.25h-3.11v-.25h.13c.29,0,.5-.04,.62-.13,.12-.09,.2-.22,.24-.4,.02-.07,.03-.28,.03-.65v-2.58c0-.57-.08-.99-.22-1.25s-.4-.39-.75-.39c-.54,0-1.09,.3-1.63,.89v3.32c0,.43,.03,.69,.08,.79,.06,.13,.15,.23,.26,.29s.34,.09,.68,.09v.25h-3.11v-.25h.14c.32,0,.54-.08,.65-.24,.11-.16,.17-.47,.17-.93v-2.33c0-.76-.02-1.22-.05-1.38s-.09-.28-.16-.34-.17-.09-.29-.09c-.13,0-.28,.03-.46,.1l-.1-.25,1.9-.77h.29v1.33Z"/><path class="cls-1" d="M345.44,92.75h-2.49l-3.15-4.35c-.23,0-.42,.01-.57,.01-.06,0-.12,0-.19,0-.07,0-.14,0-.21-.01v2.71c0,.59,.06,.95,.19,1.09,.17,.2,.43,.3,.78,.3h.36v.25h-3.99v-.25h.35c.39,0,.67-.13,.84-.38,.1-.14,.14-.48,.14-1.01v-6.02c0-.59-.06-.95-.19-1.09-.18-.2-.44-.3-.8-.3h-.35v-.25h3.39c.99,0,1.72,.07,2.19,.22,.47,.14,.87,.41,1.19,.8,.33,.39,.49,.85,.49,1.38,0,.57-.19,1.07-.56,1.49s-.95,.72-1.73,.89l1.92,2.67c.44,.61,.82,1.02,1.13,1.22,.32,.2,.73,.33,1.24,.38v.25Zm-6.61-4.79c.09,0,.16,0,.23,0,.06,0,.12,0,.16,0,.89,0,1.56-.19,2.01-.58s.68-.87,.68-1.47-.18-1.05-.55-1.42c-.36-.36-.85-.55-1.45-.55-.27,0-.62,.04-1.08,.13v3.87Z"/><path class="cls-1" d="M346.81,88.83c0,.93,.22,1.67,.68,2.2,.46,.53,1,.8,1.61,.8,.41,0,.77-.11,1.08-.34s.56-.61,.77-1.16l.21,.14c-.1,.63-.38,1.2-.84,1.71-.46,.51-1.04,.77-1.74,.77-.76,0-1.4-.29-1.94-.88-.54-.59-.81-1.38-.81-2.37,0-1.08,.28-1.92,.83-2.52,.55-.6,1.24-.9,2.08-.9,.71,0,1.28,.23,1.74,.7s.68,1.09,.68,1.86h-4.35Zm0-.4h2.91c-.02-.4-.07-.69-.14-.85-.12-.26-.29-.46-.51-.6-.23-.15-.46-.22-.71-.22-.38,0-.72,.15-1.02,.44-.3,.29-.47,.71-.53,1.23Z"/><path class="cls-1" d="M356.06,86.27v2.14h-.23c-.17-.67-.4-1.13-.67-1.37-.27-.24-.62-.36-1.04-.36-.32,0-.58,.08-.78,.25-.2,.17-.3,.36-.3,.56,0,.26,.07,.48,.22,.66,.14,.19,.43,.39,.87,.6l1,.49c.93,.45,1.39,1.05,1.39,1.79,0,.57-.22,1.03-.65,1.38s-.92,.53-1.45,.53c-.38,0-.82-.07-1.32-.21-.15-.05-.28-.07-.37-.07-.11,0-.19,.06-.25,.18h-.23v-2.25h.23c.13,.64,.37,1.12,.73,1.45s.77,.49,1.22,.49c.32,0,.57-.09,.77-.28s.3-.41,.3-.67c0-.32-.11-.58-.33-.8-.22-.22-.67-.49-1.33-.82-.66-.33-1.1-.63-1.3-.89-.21-.26-.31-.59-.31-.99,0-.52,.18-.95,.53-1.3,.36-.35,.81-.52,1.38-.52,.25,0,.55,.05,.9,.16,.23,.07,.39,.1,.47,.1,.07,0,.13-.02,.17-.05s.09-.1,.14-.21h.23Z"/><path class="cls-1" d="M358.53,88.83c0,.93,.22,1.67,.68,2.2,.46,.53,1,.8,1.61,.8,.41,0,.77-.11,1.08-.34s.56-.61,.77-1.16l.21,.14c-.1,.63-.38,1.2-.84,1.71-.46,.51-1.04,.77-1.74,.77-.76,0-1.4-.29-1.94-.88-.54-.59-.81-1.38-.81-2.37,0-1.08,.28-1.92,.83-2.52,.55-.6,1.24-.9,2.08-.9,.71,0,1.28,.23,1.74,.7s.68,1.09,.68,1.86h-4.35Zm0-.4h2.91c-.02-.4-.07-.69-.14-.85-.12-.26-.29-.46-.51-.6-.23-.15-.46-.22-.71-.22-.38,0-.72,.15-1.02,.44-.3,.29-.47,.71-.53,1.23Z"/><path class="cls-1" d="M367.28,91.84c-.65,.5-1.05,.79-1.22,.87-.25,.11-.51,.17-.79,.17-.44,0-.79-.15-1.08-.45-.28-.3-.42-.69-.42-1.17,0-.31,.07-.57,.21-.8,.19-.31,.51-.6,.98-.88,.46-.28,1.24-.61,2.32-1v-.25c0-.63-.1-1.06-.3-1.29-.2-.23-.49-.35-.87-.35-.29,0-.52,.08-.69,.23-.17,.16-.26,.33-.26,.54v.4c.01,.21-.04,.37-.15,.49s-.25,.17-.42,.17-.31-.06-.42-.18-.16-.28-.16-.49c0-.39,.2-.75,.6-1.08,.4-.33,.97-.49,1.7-.49,.56,0,1.02,.09,1.37,.28,.27,.14,.47,.36,.6,.67,.08,.2,.12,.6,.12,1.21v2.14c0,.6,.01,.97,.03,1.1,.02,.14,.06,.23,.11,.27s.11,.07,.18,.07c.07,0,.14-.02,.19-.05,.1-.06,.28-.23,.56-.5v.38c-.51,.69-1,1.03-1.47,1.03-.22,0-.4-.08-.54-.23-.13-.16-.2-.42-.21-.8Zm0-.45v-2.4c-.69,.27-1.14,.47-1.34,.58-.36,.2-.62,.41-.78,.63s-.23,.46-.23,.72c0,.33,.1,.6,.29,.82,.2,.22,.42,.33,.68,.33,.35,0,.81-.23,1.37-.69Z"/><path class="cls-1" d="M371.8,86.27v1.42c.53-.94,1.07-1.42,1.62-1.42,.25,0,.46,.08,.62,.23,.17,.15,.25,.33,.25,.53,0,.18-.06,.33-.18,.45-.12,.12-.26,.19-.43,.19s-.34-.08-.54-.24-.35-.24-.44-.24c-.08,0-.17,.05-.27,.14-.21,.19-.42,.5-.64,.93v3.02c0,.35,.04,.61,.13,.79,.06,.12,.16,.23,.32,.31,.15,.08,.37,.12,.65,.12v.25h-3.22v-.25c.32,0,.56-.05,.71-.15,.11-.07,.19-.19,.24-.35,.02-.08,.04-.3,.04-.67v-2.44c0-.73-.02-1.17-.04-1.31-.03-.14-.08-.24-.17-.31-.08-.06-.18-.1-.3-.1-.14,0-.3,.03-.48,.1l-.07-.25,1.9-.77h.29Z"/><path class="cls-1" d="M379.98,90.36c-.17,.83-.5,1.47-1,1.91s-1.04,.67-1.64,.67c-.71,0-1.34-.3-1.87-.9-.53-.6-.8-1.41-.8-2.43s.29-1.79,.88-2.41c.59-.62,1.29-.93,2.12-.93,.62,0,1.13,.16,1.52,.49,.4,.33,.6,.67,.6,1.02,0,.17-.06,.31-.17,.42-.11,.11-.27,.16-.47,.16-.27,0-.47-.09-.61-.26-.08-.1-.13-.28-.15-.55-.03-.27-.12-.48-.28-.62-.16-.14-.38-.21-.67-.21-.46,0-.83,.17-1.11,.51-.37,.45-.56,1.04-.56,1.78s.18,1.41,.55,1.99c.37,.58,.87,.86,1.49,.86,.45,0,.85-.15,1.21-.46,.25-.21,.5-.59,.74-1.15l.2,.1Z"/><path class="cls-1" d="M382.73,82.98v4.6c.51-.56,.91-.92,1.21-1.08,.3-.16,.59-.24,.89-.24,.36,0,.66,.1,.92,.29,.26,.2,.45,.51,.57,.93,.09,.29,.13,.83,.13,1.61v2.23c0,.4,.03,.67,.1,.82,.05,.11,.12,.2,.23,.26,.11,.06,.31,.1,.6,.1v.25h-3.09v-.25h.14c.29,0,.5-.04,.61-.13,.11-.09,.19-.22,.24-.4,.01-.07,.02-.29,.02-.65v-2.23c0-.69-.04-1.14-.11-1.35-.07-.21-.18-.38-.34-.48-.16-.11-.34-.16-.56-.16s-.46,.06-.7,.18c-.24,.12-.53,.36-.87,.72v3.32c0,.43,.02,.7,.07,.8s.14,.19,.27,.26c.13,.07,.36,.11,.68,.11v.25h-3.12v-.25c.28,0,.5-.04,.66-.13,.09-.05,.17-.13,.22-.26s.08-.39,.08-.78v-5.69c0-.72-.02-1.16-.05-1.33-.03-.16-.09-.28-.16-.34s-.17-.09-.29-.09c-.1,0-.25,.04-.47,.11l-.1-.24,1.88-.77h.32Z"/><path class="cls-1" d="M393.93,83.95v3.68h2.05c.53,0,.89-.08,1.06-.24,.24-.21,.37-.58,.4-1.11h.25v3.24h-.25c-.06-.45-.13-.74-.19-.87-.08-.16-.22-.29-.41-.38-.19-.09-.48-.14-.87-.14h-2.05v3.07c0,.41,.02,.66,.05,.75,.04,.09,.1,.16,.19,.21,.09,.05,.27,.08,.52,.08h1.58c.53,0,.91-.04,1.15-.11s.47-.22,.69-.43c.28-.28,.58-.71,.87-1.28h.27l-.8,2.33h-7.18v-.25h.33c.22,0,.43-.05,.62-.16,.15-.07,.25-.18,.3-.33,.05-.15,.08-.45,.08-.9v-6.05c0-.59-.06-.96-.18-1.09-.17-.18-.44-.28-.82-.28h-.33v-.25h7.18l.1,2.04h-.27c-.1-.49-.2-.83-.32-1.01-.12-.18-.29-.32-.52-.42-.18-.07-.51-.1-.97-.1h-2.55Z"/><path class="cls-1" d="M399.77,86.46h2.96v.25c-.19,0-.32,.03-.39,.1-.08,.06-.11,.15-.11,.25s.08,.28,.24,.51c.05,.07,.13,.19,.23,.34l.45,.71,.52-.71c.33-.45,.49-.74,.49-.86,0-.1-.04-.18-.12-.24-.08-.07-.2-.1-.38-.1v-.25h2.13v.25c-.22,.01-.42,.08-.58,.19-.22,.16-.53,.49-.92,1.02l-.86,1.15,1.57,2.25c.38,.55,.66,.89,.82,1,.17,.11,.38,.18,.64,.19v.25h-2.97v-.25c.21,0,.37-.05,.48-.14,.09-.06,.13-.15,.13-.25s-.15-.37-.44-.8l-.92-1.35-1.01,1.35c-.31,.42-.47,.66-.47,.74,0,.11,.05,.21,.15,.3,.1,.09,.26,.14,.46,.15v.25h-2.05v-.25c.17-.02,.31-.08,.43-.17,.17-.13,.47-.47,.88-1.02l1.32-1.75-1.2-1.73c-.34-.49-.6-.8-.79-.93s-.42-.19-.7-.19v-.25Z"/><path class="cls-1" d="M408.91,82.98v4.6c.51-.56,.91-.92,1.21-1.08,.3-.16,.59-.24,.89-.24,.36,0,.66,.1,.92,.29,.26,.2,.45,.51,.57,.93,.09,.29,.13,.83,.13,1.61v2.23c0,.4,.03,.67,.1,.82,.05,.11,.12,.2,.23,.26,.11,.06,.31,.1,.6,.1v.25h-3.09v-.25h.14c.29,0,.5-.04,.61-.13,.11-.09,.19-.22,.24-.4,.01-.07,.02-.29,.02-.65v-2.23c0-.69-.04-1.14-.11-1.35-.07-.21-.18-.38-.34-.48-.16-.11-.34-.16-.56-.16s-.46,.06-.7,.18c-.24,.12-.53,.36-.87,.72v3.32c0,.43,.02,.7,.07,.8s.14,.19,.27,.26c.13,.07,.36,.11,.68,.11v.25h-3.12v-.25c.28,0,.5-.04,.66-.13,.09-.05,.17-.13,.22-.26s.08-.39,.08-.78v-5.69c0-.72-.02-1.16-.05-1.33-.03-.16-.09-.28-.16-.34s-.17-.09-.29-.09c-.1,0-.25,.04-.47,.11l-.1-.24,1.88-.77h.32Z"/><path class="cls-1" d="M416.26,86.27v5.05c0,.39,.03,.66,.08,.79,.06,.13,.14,.23,.25,.29,.11,.06,.32,.1,.61,.1v.25h-3.06v-.25c.31,0,.51-.03,.62-.09,.11-.06,.19-.16,.25-.29s.09-.4,.09-.79v-2.42c0-.68-.02-1.12-.06-1.33-.03-.15-.08-.25-.15-.31-.07-.06-.16-.09-.28-.09-.13,0-.28,.03-.47,.1l-.1-.25,1.9-.77h.3Zm-.57-3.29c.19,0,.36,.07,.49,.2,.13,.14,.2,.3,.2,.49s-.07,.36-.2,.5c-.14,.14-.3,.21-.49,.21s-.36-.07-.5-.21c-.14-.14-.21-.3-.21-.5s.07-.36,.2-.49c.13-.13,.3-.2,.5-.2Z"/><path class="cls-1" d="M419.72,87.54c.61-.85,1.27-1.27,1.97-1.27,.65,0,1.21,.28,1.69,.83s.72,1.31,.72,2.26c0,1.12-.37,2.02-1.11,2.7-.64,.59-1.35,.88-2.13,.88-.37,0-.74-.07-1.12-.2s-.76-.33-1.16-.6v-6.52c0-.71-.02-1.15-.05-1.32-.03-.16-.09-.28-.16-.34s-.17-.09-.27-.09c-.13,0-.29,.04-.48,.11l-.1-.24,1.89-.77h.31v4.56Zm0,.44v3.76c.23,.23,.48,.4,.72,.52,.25,.12,.5,.18,.77,.18,.42,0,.8-.23,1.16-.69s.54-1.12,.54-2c0-.81-.18-1.43-.54-1.86s-.77-.65-1.23-.65c-.24,0-.49,.06-.73,.19-.18,.09-.42,.28-.7,.55Z"/><path class="cls-1" d="M427.2,86.27v5.05c0,.39,.03,.66,.08,.79,.06,.13,.14,.23,.25,.29,.11,.06,.32,.1,.61,.1v.25h-3.06v-.25c.31,0,.51-.03,.62-.09,.11-.06,.19-.16,.25-.29s.09-.4,.09-.79v-2.42c0-.68-.02-1.12-.06-1.33-.03-.15-.08-.25-.15-.31-.07-.06-.16-.09-.28-.09-.13,0-.28,.03-.47,.1l-.1-.25,1.9-.77h.3Zm-.57-3.29c.19,0,.36,.07,.49,.2,.13,.14,.2,.3,.2,.49s-.07,.36-.2,.5c-.14,.14-.3,.21-.49,.21s-.36-.07-.5-.21c-.14-.14-.21-.3-.21-.5s.07-.36,.2-.49c.13-.13,.3-.2,.5-.2Z"/><path class="cls-1" d="M430.77,84.39v2.07h1.47v.48h-1.47v4.08c0,.41,.06,.68,.17,.82,.12,.14,.27,.21,.45,.21,.15,0,.3-.05,.44-.14,.14-.09,.25-.23,.33-.42h.27c-.16,.45-.39,.79-.68,1.01s-.6,.34-.91,.34c-.21,0-.42-.06-.62-.17-.2-.12-.35-.28-.45-.5-.1-.22-.14-.55-.14-1.01v-4.23h-1v-.23c.25-.1,.51-.27,.77-.51,.26-.24,.5-.53,.7-.86,.11-.17,.25-.49,.44-.95h.21Z"/><path class="cls-1" d="M435.02,86.27v5.05c0,.39,.03,.66,.08,.79,.06,.13,.14,.23,.25,.29,.11,.06,.32,.1,.61,.1v.25h-3.06v-.25c.31,0,.51-.03,.62-.09,.11-.06,.19-.16,.25-.29s.09-.4,.09-.79v-2.42c0-.68-.02-1.12-.06-1.33-.03-.15-.08-.25-.15-.31-.07-.06-.16-.09-.28-.09-.13,0-.28,.03-.47,.1l-.1-.25,1.9-.77h.3Zm-.57-3.29c.19,0,.36,.07,.49,.2,.13,.14,.2,.3,.2,.49s-.07,.36-.2,.5c-.14,.14-.3,.21-.49,.21s-.36-.07-.5-.21c-.14-.14-.21-.3-.21-.5s.07-.36,.2-.49c.13-.13,.3-.2,.5-.2Z"/><path class="cls-1" d="M439.83,86.27c.95,0,1.72,.36,2.29,1.08,.49,.62,.74,1.33,.74,2.13,0,.56-.14,1.13-.41,1.71-.27,.58-.64,1.01-1.12,1.3-.47,.29-1,.44-1.58,.44-.95,0-1.7-.38-2.26-1.13-.47-.64-.71-1.35-.71-2.14,0-.58,.14-1.15,.43-1.72,.29-.57,.66-.99,1.13-1.26s.96-.41,1.48-.41Zm-.21,.45c-.24,0-.49,.07-.73,.22-.25,.14-.44,.4-.59,.76-.15,.36-.23,.83-.23,1.39,0,.92,.18,1.71,.55,2.37,.36,.66,.84,1,1.44,1,.44,0,.81-.18,1.1-.55,.29-.37,.43-1,.43-1.89,0-1.12-.24-2-.72-2.64-.33-.44-.74-.66-1.24-.66Z"/><path class="cls-1" d="M445.62,87.61c.74-.89,1.44-1.33,2.11-1.33,.34,0,.64,.09,.89,.26,.25,.17,.44,.45,.59,.85,.1,.27,.15,.7,.15,1.26v2.69c0,.4,.03,.67,.1,.81,.05,.11,.13,.2,.24,.27,.11,.06,.32,.1,.62,.1v.25h-3.11v-.25h.13c.29,0,.5-.04,.62-.13,.12-.09,.2-.22,.24-.4,.02-.07,.03-.28,.03-.65v-2.58c0-.57-.08-.99-.22-1.25s-.4-.39-.75-.39c-.54,0-1.09,.3-1.63,.89v3.32c0,.43,.03,.69,.08,.79,.06,.13,.15,.23,.26,.29s.34,.09,.68,.09v.25h-3.11v-.25h.14c.32,0,.54-.08,.65-.24,.11-.16,.17-.47,.17-.93v-2.33c0-.76-.02-1.22-.05-1.38s-.09-.28-.16-.34-.17-.09-.29-.09c-.13,0-.28,.03-.46,.1l-.1-.25,1.9-.77h.29v1.33Z"/></g></g></svg>